<?xml version="1.0" encoding="UTF-8"?>
<svg xmlns="http://www.w3.org/2000/svg" xmlns:xlink="http://www.w3.org/1999/xlink" width="375pt" height="374.999991pt" viewBox="0 0 375 374.999991" version="1.2">
<defs>
<filter id="alpha" filterUnits="objectBoundingBox" x="0%" y="0%" width="100%" height="100%">
  <feColorMatrix type="matrix" in="SourceGraphic" values="0 0 0 0 1 0 0 0 0 1 0 0 0 0 1 0 0 0 1 0"/>
</filter>
<mask id="mask0">
  <g filter="url(#alpha)">
<rect x="0" y="0" width="375" height="374.999991" style="fill:rgb(0%,0%,0%);fill-opacity:0.098;stroke:none;"/>
  </g>
</mask>
<clipPath id="clip2">
  <path d="M 32 0.828125 L 149 0.828125 L 149 177.078125 L 32 177.078125 Z M 32 0.828125 "/>
</clipPath>
<clipPath id="clip3">
  <path d="M 41 0.828125 L 136 0.828125 L 136 7 L 41 7 Z M 41 0.828125 "/>
</clipPath>
<clipPath id="clip4">
  <path d="M 150 171 L 156 171 L 156 177.078125 L 150 177.078125 Z M 150 171 "/>
</clipPath>
<clipPath id="clip5">
  <path d="M 0.40625 171 L 143 171 L 143 177.078125 L 0.40625 177.078125 Z M 0.40625 171 "/>
</clipPath>
<clipPath id="clip6">
  <path d="M 117 0.828125 L 137 0.828125 L 137 23 L 117 23 Z M 117 0.828125 "/>
</clipPath>
<clipPath id="clip7">
  <path d="M 41 0.828125 L 62 0.828125 L 62 23 L 41 23 Z M 41 0.828125 "/>
</clipPath>
<clipPath id="clip1">
  <rect x="0" y="0" width="156" height="178"/>
</clipPath>
<g id="surface5" clip-path="url(#clip1)">
<g clip-path="url(#clip2)" clip-rule="nonzero">
<path style=" stroke:none;fill-rule:nonzero;fill:rgb(9.408569%,16.079712%,20.779419%);fill-opacity:1;" d="M 145.328125 178.027344 L 35.367188 178.027344 C 34.472656 178.027344 33.621094 177.628906 33.046875 176.941406 C 32.476562 176.253906 32.234375 175.351562 32.394531 174.46875 L 55.515625 46.957031 C 55.5625 46.714844 55.632812 46.476562 55.734375 46.253906 C 56.269531 45.074219 68.890625 17.160156 78.242188 2.199219 C 78.792969 1.316406 79.761719 0.78125 80.804688 0.78125 L 96.1875 0.78125 C 97.25 0.78125 98.234375 1.335938 98.78125 2.25 C 107.734375 17.214844 119.609375 45.136719 120.109375 46.316406 C 120.183594 46.488281 120.238281 46.667969 120.28125 46.847656 L 148.277344 174.359375 C 148.476562 175.253906 148.253906 176.1875 147.683594 176.902344 C 147.109375 177.613281 146.242188 178.027344 145.328125 178.027344 Z M 38.984375 171.988281 L 141.574219 171.988281 L 114.441406 48.421875 C 113.253906 45.640625 102.660156 20.992188 94.460938 6.820312 L 82.492188 6.820312 C 73.980469 20.867188 62.820312 45.257812 61.394531 48.402344 Z M 38.984375 171.988281 "/>
</g>
<path style=" stroke:none;fill-rule:nonzero;fill:rgb(9.408569%,16.079712%,20.779419%);fill-opacity:1;" d="M 130.445312 175.738281 C 129.894531 175.738281 129.335938 175.585938 128.835938 175.269531 L 95.214844 154.015625 C 93.804688 153.125 93.382812 151.257812 94.277344 149.847656 C 95.167969 148.4375 97.03125 148.019531 98.441406 148.910156 L 132.0625 170.164062 C 133.472656 171.054688 133.894531 172.917969 133.003906 174.328125 C 132.429688 175.238281 131.449219 175.738281 130.445312 175.738281 Z M 130.445312 175.738281 "/>
<path style=" stroke:none;fill-rule:nonzero;fill:rgb(9.408569%,16.079712%,20.779419%);fill-opacity:1;" d="M 80.671875 144.273438 C 80.121094 144.273438 79.5625 144.121094 79.0625 143.804688 L 47.4375 123.816406 C 46.027344 122.925781 45.609375 121.058594 46.5 119.648438 C 47.390625 118.238281 49.253906 117.820312 50.667969 118.710938 L 82.289062 138.699219 C 83.699219 139.589844 84.121094 141.457031 83.226562 142.867188 C 82.652344 143.777344 81.671875 144.273438 80.671875 144.273438 Z M 80.671875 144.273438 "/>
<path style=" stroke:none;fill-rule:nonzero;fill:rgb(9.408569%,16.079712%,20.779419%);fill-opacity:1;" d="M 46.777344 175.738281 C 45.769531 175.738281 44.789062 175.234375 44.214844 174.320312 C 43.328125 172.910156 43.753906 171.042969 45.167969 170.15625 L 127.207031 118.707031 C 128.621094 117.820312 130.484375 118.246094 131.371094 119.660156 C 132.257812 121.074219 131.832031 122.9375 130.417969 123.824219 L 48.375 175.273438 C 47.878906 175.585938 47.324219 175.738281 46.777344 175.738281 Z M 46.777344 175.738281 "/>
<path style=" stroke:none;fill-rule:nonzero;fill:rgb(9.408569%,16.079712%,20.779419%);fill-opacity:1;" d="M 48.3125 121.796875 C 47.308594 121.796875 46.324219 121.292969 45.75 120.378906 C 44.863281 118.96875 45.292969 117.105469 46.707031 116.21875 L 79.070312 95.917969 C 80.484375 95.03125 82.347656 95.460938 83.234375 96.875 C 84.121094 98.289062 83.691406 100.152344 82.28125 101.035156 L 49.914062 121.335938 C 49.414062 121.648438 48.859375 121.796875 48.3125 121.796875 Z M 48.3125 121.796875 "/>
<path style=" stroke:none;fill-rule:nonzero;fill:rgb(9.408569%,16.079712%,20.779419%);fill-opacity:1;" d="M 96.832031 91.367188 C 95.824219 91.367188 94.84375 90.867188 94.269531 89.953125 C 93.382812 88.539062 93.808594 86.675781 95.222656 85.789062 L 116.65625 72.34375 C 118.066406 71.460938 119.933594 71.886719 120.820312 73.300781 C 121.707031 74.710938 121.277344 76.574219 119.863281 77.460938 L 98.433594 90.90625 C 97.933594 91.21875 97.378906 91.367188 96.832031 91.367188 Z M 96.832031 91.367188 "/>
<path style=" stroke:none;fill-rule:nonzero;fill:rgb(9.408569%,16.079712%,20.779419%);fill-opacity:1;" d="M 128.910156 121.796875 C 128.363281 121.796875 127.808594 121.644531 127.308594 121.332031 L 54.808594 75.859375 C 53.394531 74.972656 52.964844 73.109375 53.851562 71.699219 C 54.738281 70.285156 56.601562 69.855469 58.015625 70.742188 L 130.519531 116.21875 C 131.933594 117.105469 132.359375 118.96875 131.472656 120.378906 C 130.898438 121.292969 129.917969 121.796875 128.910156 121.796875 Z M 128.910156 121.796875 "/>
<path style=" stroke:none;fill-rule:nonzero;fill:rgb(9.408569%,16.079712%,20.779419%);fill-opacity:1;" d="M 120.265625 76.324219 C 119.71875 76.324219 119.164062 76.175781 118.667969 75.859375 L 85.660156 55.160156 C 84.246094 54.273438 83.820312 52.410156 84.707031 51 C 85.59375 49.585938 87.457031 49.15625 88.871094 50.042969 L 121.875 70.742188 C 123.289062 71.628906 123.714844 73.492188 122.828125 74.90625 C 122.253906 75.820312 121.273438 76.324219 120.265625 76.324219 Z M 120.265625 76.324219 "/>
<path style=" stroke:none;fill-rule:nonzero;fill:rgb(9.408569%,16.079712%,20.779419%);fill-opacity:1;" d="M 152.417969 55.625 L 23.167969 55.625 C 21.5 55.625 20.148438 54.269531 20.148438 52.601562 C 20.148438 50.9375 21.5 49.582031 23.167969 49.582031 L 152.417969 49.582031 C 154.085938 49.582031 155.4375 50.9375 155.4375 52.601562 C 155.4375 54.269531 154.085938 55.625 152.417969 55.625 Z M 152.417969 55.625 "/>
<g clip-path="url(#clip3)" clip-rule="nonzero">
<path style=" stroke:none;fill-rule:nonzero;fill:rgb(9.408569%,16.079712%,20.779419%);fill-opacity:1;" d="M 132.234375 6.820312 L 44.992188 6.820312 C 43.324219 6.820312 41.972656 5.464844 41.972656 3.800781 C 41.972656 2.132812 43.324219 0.777344 44.992188 0.777344 L 132.234375 0.777344 C 133.902344 0.777344 135.253906 2.132812 135.253906 3.800781 C 135.253906 5.464844 133.902344 6.820312 132.234375 6.820312 Z M 132.234375 6.820312 "/>
</g>
<g clip-path="url(#clip4)" clip-rule="nonzero">
<path style=" stroke:none;fill-rule:nonzero;fill:rgb(9.408569%,16.079712%,20.779419%);fill-opacity:1;" d="M 175.988281 178.027344 L 153.863281 178.027344 C 152.195312 178.027344 150.839844 176.675781 150.839844 175.007812 C 150.839844 173.339844 152.195312 171.988281 153.863281 171.988281 L 175.988281 171.988281 C 177.65625 171.988281 179.007812 173.339844 179.007812 175.007812 C 179.007812 176.675781 177.65625 178.027344 175.988281 178.027344 Z M 175.988281 178.027344 "/>
</g>
<g clip-path="url(#clip5)" clip-rule="nonzero">
<path style=" stroke:none;fill-rule:nonzero;fill:rgb(9.408569%,16.079712%,20.779419%);fill-opacity:1;" d="M 139.167969 178.027344 L 3.515625 178.027344 C 1.847656 178.027344 0.496094 176.675781 0.496094 175.007812 C 0.496094 173.339844 1.847656 171.988281 3.515625 171.988281 L 139.167969 171.988281 C 140.835938 171.988281 142.1875 173.339844 142.1875 175.007812 C 142.1875 176.675781 140.835938 178.027344 139.167969 178.027344 Z M 139.167969 178.027344 "/>
</g>
<path style=" stroke:none;fill-rule:nonzero;fill:rgb(9.408569%,16.079712%,20.779419%);fill-opacity:1;" d="M 36.644531 71.144531 L 28.203125 71.144531 C 24.984375 71.144531 22.558594 68.03125 22.558594 63.898438 L 22.558594 52.601562 C 22.558594 50.9375 23.910156 49.582031 25.578125 49.582031 L 39.269531 49.582031 C 40.9375 49.582031 42.289062 50.9375 42.289062 52.601562 L 42.289062 63.898438 C 42.289062 68.03125 39.863281 71.144531 36.644531 71.144531 Z M 28.816406 65.105469 L 36.035156 65.105469 C 36.136719 64.863281 36.253906 64.460938 36.253906 63.898438 L 36.253906 55.625 L 28.597656 55.625 L 28.597656 63.898438 C 28.597656 64.460938 28.714844 64.863281 28.816406 65.105469 Z M 28.816406 65.105469 "/>
<path style=" stroke:none;fill-rule:nonzero;fill:rgb(9.408569%,16.079712%,20.779419%);fill-opacity:1;" d="M 147.175781 71.144531 L 138.734375 71.144531 C 135.515625 71.144531 133.085938 68.03125 133.085938 63.898438 L 133.085938 52.601562 C 133.085938 50.9375 134.441406 49.582031 136.105469 49.582031 L 149.804688 49.582031 C 151.46875 49.582031 152.824219 50.9375 152.824219 52.601562 L 152.824219 63.898438 C 152.824219 68.03125 150.394531 71.144531 147.175781 71.144531 Z M 139.347656 65.105469 L 146.566406 65.105469 C 146.667969 64.863281 146.785156 64.460938 146.785156 63.898438 L 146.785156 55.625 L 139.128906 55.625 L 139.128906 63.898438 C 139.128906 64.460938 139.242188 64.863281 139.347656 65.105469 Z M 139.347656 65.105469 "/>
<g clip-path="url(#clip6)" clip-rule="nonzero">
<path style=" stroke:none;fill-rule:nonzero;fill:rgb(9.408569%,16.079712%,20.779419%);fill-opacity:1;" d="M 131.339844 22.34375 L 122.894531 22.34375 C 119.675781 22.34375 117.25 19.226562 117.25 15.09375 L 117.25 3.800781 C 117.25 2.132812 118.601562 0.777344 120.269531 0.777344 L 133.964844 0.777344 C 135.632812 0.777344 136.984375 2.132812 136.984375 3.800781 L 136.984375 15.09375 C 136.984375 19.226562 134.554688 22.34375 131.339844 22.34375 Z M 123.507812 16.304688 L 130.726562 16.304688 C 130.832031 16.0625 130.945312 15.65625 130.945312 15.09375 L 130.945312 6.820312 L 123.289062 6.820312 L 123.289062 15.09375 C 123.289062 15.65625 123.40625 16.0625 123.507812 16.304688 Z M 123.507812 16.304688 "/>
</g>
<g clip-path="url(#clip7)" clip-rule="nonzero">
<path style=" stroke:none;fill-rule:nonzero;fill:rgb(9.408569%,16.079712%,20.779419%);fill-opacity:1;" d="M 56.058594 22.34375 L 47.617188 22.34375 C 44.398438 22.34375 41.96875 19.226562 41.96875 15.09375 L 41.96875 3.800781 C 41.96875 2.132812 43.320312 0.777344 44.988281 0.777344 L 58.683594 0.777344 C 60.351562 0.777344 61.703125 2.132812 61.703125 3.800781 L 61.703125 15.09375 C 61.703125 19.226562 59.277344 22.34375 56.058594 22.34375 Z M 48.230469 16.304688 L 55.445312 16.304688 C 55.550781 16.0625 55.664062 15.65625 55.664062 15.09375 L 55.664062 6.820312 L 48.011719 6.820312 L 48.011719 15.09375 C 48.011719 15.65625 48.125 16.0625 48.230469 16.304688 Z M 48.230469 16.304688 "/>
</g>
</g>
<mask id="mask1">
  <g filter="url(#alpha)">
<rect x="0" y="0" width="375" height="374.999991" style="fill:rgb(0%,0%,0%);fill-opacity:0.098;stroke:none;"/>
  </g>
</mask>
<clipPath id="clip9">
  <path d="M 50 164 L 169 164 L 169 197.402344 L 50 197.402344 Z M 50 164 "/>
</clipPath>
<clipPath id="clip10">
  <path d="M 0 0.445312 L 220 0.445312 L 220 152 L 0 152 Z M 0 0.445312 "/>
</clipPath>
<clipPath id="clip8">
  <rect x="0" y="0" width="344" height="198"/>
</clipPath>
<g id="surface8" clip-path="url(#clip8)">
<path style=" stroke:none;fill-rule:nonzero;fill:rgb(100%,100%,100%);fill-opacity:1;" d="M 146.730469 168.589844 L 74.332031 168.589844 L 74.332031 129.652344 L 146.730469 129.652344 L 146.730469 168.589844 "/>
<path style=" stroke:none;fill-rule:nonzero;fill:rgb(1.568604%,1.959229%,1.959229%);fill-opacity:1;" d="M 146.730469 168.589844 L 146.730469 164.910156 L 78.015625 164.910156 L 78.015625 133.332031 L 143.046875 133.332031 L 143.046875 168.589844 L 146.730469 168.589844 L 146.730469 164.910156 L 146.730469 168.589844 L 150.410156 168.589844 L 150.410156 129.652344 C 150.410156 128.683594 150.015625 127.742188 149.335938 127.050781 C 148.644531 126.359375 147.703125 125.976562 146.730469 125.976562 L 74.332031 125.976562 C 73.359375 125.976562 72.417969 126.359375 71.726562 127.050781 C 71.035156 127.742188 70.652344 128.683594 70.652344 129.652344 L 70.652344 168.589844 C 70.652344 169.558594 71.035156 170.5 71.726562 171.191406 C 72.417969 171.867188 73.359375 172.265625 74.332031 172.265625 L 146.730469 172.265625 C 147.703125 172.265625 148.644531 171.867188 149.335938 171.191406 C 150.015625 170.5 150.410156 169.558594 150.410156 168.589844 L 146.730469 168.589844 "/>
<path style=" stroke:none;fill-rule:nonzero;fill:rgb(100%,100%,100%);fill-opacity:1;" d="M 145.417969 168.589844 L 110.355469 168.589844 L 109.867188 168.648438 L 109.382812 168.589844 L 74.332031 168.589844 L 54.644531 181.210938 L 54.644531 193.828125 L 165.109375 193.828125 L 165.109375 181.210938 L 145.417969 168.589844 "/>
<g clip-path="url(#clip9)" clip-rule="nonzero">
<path style=" stroke:none;fill-rule:nonzero;fill:rgb(1.568604%,1.959229%,1.959229%);fill-opacity:1;" d="M 145.417969 168.589844 L 145.417969 164.910156 L 110.355469 164.910156 C 110.191406 164.910156 110.089844 164.910156 109.941406 164.941406 L 109.808594 164.941406 C 109.648438 164.910156 109.542969 164.910156 109.382812 164.910156 L 74.332031 164.910156 C 73.625 164.910156 72.933594 165.117188 72.332031 165.5 L 52.640625 178.121094 C 51.59375 178.796875 50.960938 179.957031 50.960938 181.210938 L 50.960938 193.828125 C 50.960938 194.800781 51.34375 195.757812 52.035156 196.433594 C 52.714844 197.109375 53.671875 197.507812 54.644531 197.507812 L 165.109375 197.507812 C 166.066406 197.507812 167.023438 197.109375 167.699219 196.433594 C 168.394531 195.757812 168.789062 194.800781 168.789062 193.828125 L 168.789062 181.210938 C 168.789062 179.957031 168.144531 178.796875 167.097656 178.121094 L 147.40625 165.5 C 146.804688 165.117188 146.113281 164.910156 145.417969 164.910156 L 145.417969 168.589844 L 143.417969 171.691406 L 161.425781 183.222656 L 161.425781 190.152344 L 58.324219 190.152344 L 58.324219 183.222656 L 75.40625 172.265625 L 109.175781 172.265625 L 109.457031 172.296875 C 109.722656 172.324219 110.015625 172.324219 110.28125 172.296875 L 110.5625 172.265625 L 145.417969 172.265625 L 145.417969 168.589844 L 143.417969 171.691406 L 145.417969 168.589844 "/>
</g>
<path style=" stroke:none;fill-rule:nonzero;fill:rgb(100%,100%,100%);fill-opacity:1;" d="M 4.09375 144.4375 C 4.09375 146.214844 5.542969 147.6875 7.339844 147.6875 L 212.398438 147.6875 C 214.195312 147.6875 215.652344 146.214844 215.652344 144.4375 L 215.652344 7.417969 C 215.652344 5.609375 214.195312 4.167969 212.398438 4.167969 L 7.339844 4.167969 C 5.542969 4.167969 4.09375 5.609375 4.09375 7.417969 L 4.09375 144.4375 "/>
<g clip-path="url(#clip10)" clip-rule="nonzero">
<path style=" stroke:none;fill-rule:nonzero;fill:rgb(1.568604%,1.959229%,1.959229%);fill-opacity:1;" d="M 125.375 151.363281 C 127.410156 151.363281 129.058594 149.703125 129.058594 147.6875 C 129.058594 145.65625 127.410156 144.007812 125.375 144.007812 C 123.34375 144.007812 121.695312 145.65625 121.695312 147.6875 C 121.695312 149.703125 123.34375 151.363281 125.375 151.363281 Z M 137.496094 151.363281 L 212.398438 151.363281 C 214.296875 151.363281 216.050781 150.570312 217.300781 149.335938 C 218.554688 148.082031 219.332031 146.332031 219.332031 144.4375 L 219.332031 119.972656 C 219.332031 117.945312 217.683594 116.296875 215.652344 116.296875 C 213.605469 116.296875 211.96875 117.945312 211.96875 119.972656 L 211.96875 144.4375 L 212.398438 144.4375 L 212.085938 144.128906 L 211.96875 144.4375 L 212.398438 144.4375 L 212.085938 144.128906 L 212.398438 144.4375 L 212.398438 144.007812 L 212.085938 144.128906 L 212.398438 144.4375 L 212.398438 144.007812 L 137.496094 144.007812 C 135.480469 144.007812 133.816406 145.65625 133.816406 147.6875 C 133.816406 149.703125 135.480469 151.363281 137.496094 151.363281 Z M 219.332031 101.335938 C 219.332031 99.308594 217.683594 97.660156 215.652344 97.660156 C 213.605469 97.660156 211.96875 99.308594 211.96875 101.335938 C 211.96875 103.367188 213.605469 105.015625 215.652344 105.015625 C 217.683594 105.015625 219.332031 103.367188 219.332031 101.335938 Z M 219.332031 89.230469 L 219.332031 7.417969 C 219.332031 5.507812 218.554688 3.757812 217.300781 2.519531 C 216.050781 1.269531 214.296875 0.492188 212.398438 0.492188 L 194.929688 0.492188 C 192.898438 0.492188 191.25 2.136719 191.25 4.167969 C 191.25 6.199219 192.898438 7.84375 194.929688 7.84375 L 212.398438 7.84375 L 212.398438 7.417969 L 212.085938 7.714844 L 212.398438 7.84375 L 212.398438 7.417969 L 212.085938 7.714844 L 212.398438 7.417969 L 211.96875 7.417969 L 212.085938 7.714844 L 212.398438 7.417969 L 211.96875 7.417969 L 211.96875 89.230469 C 211.96875 91.261719 213.605469 92.910156 215.652344 92.910156 C 217.683594 92.910156 219.332031 91.261719 219.332031 89.230469 Z M 176.273438 0.492188 C 174.238281 0.492188 172.589844 2.136719 172.589844 4.167969 C 172.589844 6.199219 174.238281 7.84375 176.273438 7.84375 C 178.304688 7.84375 179.953125 6.199219 179.953125 4.167969 C 179.953125 2.136719 178.304688 0.492188 176.273438 0.492188 Z M 164.152344 0.492188 L 59.664062 0.492188 C 57.632812 0.492188 55.984375 2.136719 55.984375 4.167969 C 55.984375 6.199219 57.632812 7.84375 59.664062 7.84375 L 164.152344 7.84375 C 166.183594 7.84375 167.832031 6.199219 167.832031 4.167969 C 167.832031 2.136719 166.183594 0.492188 164.152344 0.492188 Z M 41.007812 0.492188 C 38.972656 0.492188 37.324219 2.136719 37.324219 4.167969 C 37.324219 6.199219 38.972656 7.84375 41.007812 7.84375 C 43.039062 7.84375 44.6875 6.199219 44.6875 4.167969 C 44.6875 2.136719 43.039062 0.492188 41.007812 0.492188 Z M 28.871094 0.492188 L 7.339844 0.492188 C 3.511719 0.492188 0.410156 3.578125 0.410156 7.417969 L 0.410156 85.15625 C 0.410156 87.1875 2.0625 88.835938 4.09375 88.835938 C 6.117188 88.835938 7.769531 87.1875 7.769531 85.15625 L 7.769531 7.417969 L 7.339844 7.417969 L 7.339844 7.84375 C 7.578125 7.84375 7.769531 7.652344 7.769531 7.417969 L 7.339844 7.417969 L 7.339844 7.84375 L 28.871094 7.84375 C 30.917969 7.84375 32.554688 6.199219 32.554688 4.167969 C 32.554688 2.136719 30.917969 0.492188 28.871094 0.492188 Z M 0.410156 103.792969 C 0.410156 105.824219 2.0625 107.472656 4.09375 107.472656 C 6.117188 107.472656 7.769531 105.824219 7.769531 103.792969 C 7.769531 101.765625 6.117188 100.117188 4.09375 100.117188 C 2.0625 100.117188 0.410156 101.765625 0.410156 103.792969 Z M 0.410156 115.914062 L 0.410156 144.4375 C 0.410156 146.332031 1.1875 148.082031 2.4375 149.320312 C 3.679688 150.570312 5.425781 151.363281 7.339844 151.363281 L 106.71875 151.363281 C 108.75 151.363281 110.398438 149.703125 110.398438 147.6875 C 110.398438 145.65625 108.75 144.007812 106.71875 144.007812 L 7.339844 144.007812 L 7.339844 144.4375 L 7.648438 144.128906 L 7.339844 144.007812 L 7.339844 144.4375 L 7.648438 144.128906 L 7.339844 144.4375 L 7.769531 144.4375 L 7.648438 144.128906 L 7.339844 144.4375 L 7.769531 144.4375 L 7.769531 115.914062 C 7.769531 113.871094 6.117188 112.238281 4.09375 112.238281 C 2.0625 112.238281 0.410156 113.871094 0.410156 115.914062 "/>
</g>
<path style=" stroke:none;fill-rule:nonzero;fill:rgb(100%,100%,100%);fill-opacity:1;" d="M 4.09375 117.386719 L 4.09375 144.4375 C 4.09375 146.214844 5.542969 147.6875 7.339844 147.6875 L 212.398438 147.6875 C 214.195312 147.6875 215.652344 146.214844 215.652344 144.4375 L 215.652344 117.386719 L 4.085938 117.386719 "/>
<path style=" stroke:none;fill-rule:nonzero;fill:rgb(1.568604%,1.959229%,1.959229%);fill-opacity:1;" d="M 4.09375 117.386719 L 0.410156 117.386719 L 0.410156 144.4375 C 0.410156 146.332031 1.1875 148.082031 2.4375 149.320312 C 3.679688 150.570312 5.425781 151.363281 7.339844 151.363281 L 212.398438 151.363281 C 214.296875 151.363281 216.050781 150.570312 217.300781 149.335938 C 218.554688 148.082031 219.332031 146.332031 219.332031 144.4375 L 219.332031 117.386719 C 219.332031 116.414062 218.9375 115.472656 218.257812 114.78125 C 217.566406 114.089844 216.609375 113.707031 215.652344 113.707031 L 4.085938 113.707031 C 3.121094 113.707031 2.175781 114.089844 1.488281 114.78125 C 0.800781 115.472656 0.410156 116.414062 0.410156 117.386719 L 4.09375 117.386719 L 4.09375 121.0625 L 211.976562 121.0625 L 211.960938 144.4375 L 212.390625 144.4375 L 212.082031 144.128906 L 211.960938 144.4375 L 212.390625 144.4375 L 212.082031 144.128906 L 212.390625 144.4375 L 212.390625 144.007812 L 212.082031 144.128906 L 212.390625 144.4375 L 212.390625 144.007812 L 7.332031 144.007812 L 7.332031 144.4375 L 7.640625 144.128906 L 7.332031 144.007812 L 7.332031 144.4375 L 7.640625 144.128906 L 7.332031 144.4375 L 7.761719 144.4375 L 7.640625 144.128906 L 7.332031 144.4375 L 7.761719 144.4375 L 7.761719 117.386719 L 4.085938 117.386719 L 4.085938 121.0625 L 4.085938 117.386719 "/>
<path style=" stroke:none;fill-rule:nonzero;fill:rgb(100%,100%,100%);fill-opacity:1;" d="M 117.277344 133.433594 C 117.277344 137.523438 113.964844 140.832031 109.867188 140.832031 C 105.789062 140.832031 102.476562 137.523438 102.476562 133.433594 C 102.476562 129.34375 105.789062 126.035156 109.867188 126.035156 C 113.964844 126.035156 117.277344 129.34375 117.277344 133.433594 "/>
<path style=" stroke:none;fill-rule:nonzero;fill:rgb(1.568604%,1.959229%,1.959229%);fill-opacity:1;" d="M 117.277344 133.433594 L 113.59375 133.433594 C 113.59375 134.476562 113.183594 135.375 112.503906 136.066406 C 111.8125 136.742188 110.914062 137.15625 109.867188 137.15625 C 108.839844 137.15625 107.925781 136.742188 107.234375 136.066406 C 106.554688 135.375 106.15625 134.476562 106.15625 133.433594 C 106.15625 132.390625 106.554688 131.492188 107.234375 130.816406 C 107.925781 130.136719 108.839844 129.726562 109.867188 129.710938 C 110.914062 129.726562 111.8125 130.136719 112.503906 130.816406 C 113.183594 131.492188 113.59375 132.390625 113.59375 133.433594 L 120.957031 133.433594 C 120.957031 130.386719 119.707031 127.59375 117.703125 125.609375 C 115.714844 123.609375 112.917969 122.355469 109.867188 122.355469 C 106.820312 122.355469 104.023438 123.609375 102.035156 125.609375 C 100.03125 127.59375 98.792969 130.386719 98.792969 133.433594 C 98.792969 136.476562 100.03125 139.273438 102.035156 141.273438 C 104.023438 143.257812 106.820312 144.507812 109.867188 144.507812 C 112.917969 144.507812 115.714844 143.257812 117.703125 141.273438 C 119.707031 139.273438 120.957031 136.476562 120.957031 133.433594 L 117.277344 133.433594 "/>
<path style=" stroke:none;fill-rule:nonzero;fill:rgb(1.568604%,1.959229%,1.959229%);fill-opacity:1;" d="M 165.109375 177.53125 L 60.621094 177.53125 C 58.589844 177.53125 56.941406 179.179688 56.941406 181.210938 C 56.941406 183.238281 58.589844 184.886719 60.621094 184.886719 L 165.109375 184.886719 C 167.140625 184.886719 168.789062 183.238281 168.789062 181.210938 C 168.789062 179.179688 167.140625 177.53125 165.109375 177.53125 "/>
<path style=" stroke:none;fill-rule:nonzero;fill:rgb(1.568604%,1.959229%,1.959229%);fill-opacity:1;" d="M 72.242188 68.199219 C 71.769531 66.226562 69.78125 65.003906 67.808594 65.492188 C 65.820312 65.960938 64.613281 67.949219 65.085938 69.917969 C 65.554688 71.890625 67.542969 73.109375 69.515625 72.640625 C 71.503906 72.167969 72.726562 70.167969 72.242188 68.199219 Z M 71.226562 57.222656 C 71.710938 46.988281 76.1875 37.808594 83.140625 31.175781 C 90.105469 24.539062 99.488281 20.464844 109.867188 20.464844 C 122.753906 20.464844 134.136719 26.746094 141.191406 36.410156 C 142.386719 38.058594 144.683594 38.425781 146.332031 37.234375 C 147.96875 36.027344 148.335938 33.734375 147.140625 32.085938 C 138.792969 20.597656 125.183594 13.109375 109.867188 13.109375 C 97.542969 13.109375 86.304688 17.964844 78.058594 25.863281 C 69.78125 33.734375 64.453125 44.691406 63.863281 56.871094 C 63.757812 58.902344 65.335938 60.621094 67.367188 60.710938 C 69.386719 60.8125 71.121094 59.253906 71.226562 57.222656 Z M 147.894531 51.898438 C 148.261719 53.886719 150.191406 55.210938 152.195312 54.828125 C 154.195312 54.445312 155.507812 52.53125 155.125 50.53125 C 154.757812 48.53125 152.828125 47.222656 150.824219 47.605469 C 148.820312 47.972656 147.511719 49.898438 147.894531 51.898438 Z M 148.570312 59.121094 C 148.570312 69.800781 144.242188 79.449219 137.230469 86.453125 C 130.222656 93.453125 120.558594 97.777344 109.867188 97.777344 C 97.660156 97.777344 86.804688 92.144531 79.707031 83.332031 C 78.425781 81.757812 76.113281 81.496094 74.523438 82.773438 C 72.949219 84.054688 72.699219 86.363281 73.964844 87.953125 C 82.402344 98.410156 95.363281 105.132812 109.867188 105.132812 C 135.316406 105.132812 155.933594 84.539062 155.933594 59.121094 C 155.933594 57.09375 154.285156 55.445312 152.253906 55.445312 C 150.21875 55.445312 148.570312 57.09375 148.570312 59.121094 "/>
<path style=" stroke:none;fill-rule:nonzero;fill:rgb(1.568604%,1.959229%,1.959229%);fill-opacity:1;" d="M 99.058594 103.851562 C 101.03125 104.324219 103.019531 103.101562 103.492188 101.132812 C 103.976562 99.160156 102.753906 97.175781 100.78125 96.703125 C 98.792969 96.21875 96.820312 97.441406 96.335938 99.410156 C 95.863281 101.398438 97.085938 103.367188 99.058594 103.851562 Z M 113.550781 99.382812 L 113.550781 16.789062 C 113.550781 15.816406 113.152344 14.875 112.476562 14.199219 C 111.785156 13.507812 110.839844 13.109375 109.867188 13.109375 C 84.4375 13.109375 63.816406 33.703125 63.804688 59.121094 C 63.804688 73.609375 70.519531 86.554688 81.003906 94.984375 C 82.59375 96.25 84.90625 96 86.1875 94.410156 C 87.453125 92.835938 87.203125 90.527344 85.628906 89.246094 C 76.808594 82.140625 71.179688 71.316406 71.179688 59.121094 C 71.179688 48.441406 75.496094 38.792969 82.507812 31.792969 C 89.515625 24.789062 99.175781 20.464844 109.867188 20.464844 L 109.867188 16.789062 L 106.1875 16.789062 L 106.1875 99.382812 C 106.1875 101.398438 107.835938 103.058594 109.867188 103.058594 C 111.902344 103.058594 113.550781 101.398438 113.550781 99.382812 "/>
<path style=" stroke:none;fill-rule:nonzero;fill:rgb(1.568604%,1.959229%,1.959229%);fill-opacity:1;" d="M 113.550781 44.972656 C 113.550781 42.941406 111.902344 41.292969 109.867188 41.292969 C 107.835938 41.292969 106.1875 42.941406 106.1875 44.972656 C 106.1875 47 107.835938 48.648438 109.867188 48.648438 C 111.902344 48.648438 113.550781 47 113.550781 44.972656 Z M 113.550781 32.867188 L 113.550781 16.789062 C 113.550781 15.816406 113.152344 14.875 112.476562 14.199219 C 111.785156 13.507812 110.839844 13.109375 109.867188 13.109375 C 84.4375 13.109375 63.816406 33.703125 63.804688 59.121094 C 63.804688 60.09375 64.199219 61.035156 64.894531 61.726562 C 65.570312 62.402344 66.527344 62.800781 67.5 62.800781 L 105.378906 62.800781 C 107.410156 62.800781 109.058594 61.152344 109.058594 59.121094 C 109.058594 57.09375 107.410156 55.445312 105.378906 55.445312 L 67.5 55.445312 L 67.5 59.121094 L 71.179688 59.121094 C 71.179688 48.441406 75.496094 38.792969 82.507812 31.792969 C 89.515625 24.789062 99.175781 20.464844 109.867188 20.464844 L 109.867188 16.789062 L 106.1875 16.789062 L 106.1875 32.867188 C 106.1875 34.894531 107.835938 36.542969 109.867188 36.542969 C 111.902344 36.542969 113.550781 34.894531 113.550781 32.867188 "/>
<path style=" stroke:none;fill-rule:nonzero;fill:rgb(1.568604%,1.959229%,1.959229%);fill-opacity:1;" d="M 109.867188 59.121094 L 113.550781 59.121094 L 113.550781 16.789062 C 113.550781 15.816406 113.152344 14.875 112.476562 14.199219 C 111.785156 13.507812 110.839844 13.113281 109.867188 13.113281 C 97.953125 13.113281 87.070312 17.640625 78.898438 25.070312 C 77.394531 26.4375 77.277344 28.761719 78.648438 30.261719 L 107.144531 61.59375 C 108.175781 62.726562 109.78125 63.109375 111.195312 62.550781 C 112.621094 62.003906 113.550781 60.636719 113.550781 59.121094 L 109.867188 59.121094 L 112.59375 56.652344 L 84.097656 25.320312 L 81.371094 27.792969 L 83.847656 30.511719 C 90.738281 24.277344 99.839844 20.464844 109.867188 20.464844 L 109.867188 16.789062 L 106.1875 16.789062 L 106.1875 59.121094 L 109.867188 59.121094 L 112.59375 56.652344 L 109.867188 59.121094 "/>
<path style=" stroke:none;fill-rule:nonzero;fill:rgb(100%,100%,100%);fill-opacity:1;" d="M 255.679688 156.234375 L 232.335938 156.234375 L 232.335938 185.738281 L 255.679688 185.738281 L 255.679688 156.234375 "/>
<path style=" stroke:none;fill-rule:nonzero;fill:rgb(1.568604%,1.959229%,1.959229%);fill-opacity:1;" d="M 255.679688 156.234375 L 255.679688 152.554688 L 232.335938 152.554688 C 231.378906 152.554688 230.421875 152.9375 229.746094 153.628906 C 229.054688 154.304688 228.65625 155.261719 228.65625 156.234375 L 228.65625 185.738281 C 228.65625 186.710938 229.054688 187.667969 229.746094 188.34375 C 230.421875 189.019531 231.378906 189.417969 232.335938 189.417969 L 255.679688 189.417969 C 256.636719 189.417969 257.59375 189.019531 258.269531 188.34375 C 258.964844 187.667969 259.359375 186.710938 259.359375 185.738281 L 259.359375 156.234375 C 259.359375 155.261719 258.964844 154.304688 258.269531 153.628906 C 257.59375 152.9375 256.636719 152.554688 255.679688 152.554688 L 255.679688 156.234375 L 251.996094 156.234375 L 251.996094 182.0625 L 236.019531 182.0625 L 236.019531 159.910156 L 255.679688 159.910156 L 255.679688 156.234375 L 251.996094 156.234375 L 255.679688 156.234375 "/>
<path style=" stroke:none;fill-rule:nonzero;fill:rgb(100%,100%,100%);fill-opacity:1;" d="M 296.691406 140.375 L 273.367188 140.375 L 273.367188 185.738281 L 296.691406 185.738281 L 296.691406 140.375 "/>
<path style=" stroke:none;fill-rule:nonzero;fill:rgb(1.568604%,1.959229%,1.959229%);fill-opacity:1;" d="M 296.691406 140.375 L 296.691406 136.699219 L 273.367188 136.699219 C 272.394531 136.699219 271.453125 137.097656 270.757812 137.789062 C 270.082031 138.464844 269.683594 139.40625 269.683594 140.375 L 269.683594 185.738281 C 269.683594 186.710938 270.082031 187.667969 270.757812 188.34375 C 271.453125 189.019531 272.394531 189.417969 273.367188 189.417969 L 296.691406 189.417969 C 297.664062 189.417969 298.609375 189.019531 299.285156 188.34375 C 299.976562 187.667969 300.375 186.710938 300.375 185.738281 L 300.375 140.375 C 300.375 139.40625 299.976562 138.464844 299.285156 137.789062 C 298.609375 137.097656 297.664062 136.699219 296.691406 136.699219 L 296.691406 140.375 L 293.011719 140.375 L 293.011719 182.0625 L 277.046875 182.0625 L 277.046875 144.054688 L 296.691406 144.054688 L 296.691406 140.375 L 293.011719 140.375 L 296.691406 140.375 "/>
<path style=" stroke:none;fill-rule:nonzero;fill:rgb(100%,100%,100%);fill-opacity:1;" d="M 338.046875 98.453125 L 314.71875 98.453125 L 314.71875 185.738281 L 338.046875 185.738281 L 338.046875 98.453125 "/>
<path style=" stroke:none;fill-rule:nonzero;fill:rgb(1.568604%,1.959229%,1.959229%);fill-opacity:1;" d="M 338.046875 98.453125 L 338.046875 94.777344 L 314.71875 94.777344 C 313.761719 94.777344 312.804688 95.175781 312.128906 95.867188 C 311.433594 96.542969 311.039062 97.5 311.039062 98.453125 L 311.039062 185.738281 C 311.039062 186.710938 311.433594 187.667969 312.128906 188.34375 C 312.804688 189.019531 313.761719 189.417969 314.71875 189.417969 L 338.046875 189.417969 C 339.019531 189.417969 339.976562 189.019531 340.652344 188.34375 C 341.34375 187.667969 341.726562 186.710938 341.726562 185.738281 L 341.726562 98.453125 C 341.726562 97.5 341.34375 96.542969 340.652344 95.867188 C 339.976562 95.175781 339.019531 94.777344 338.046875 94.777344 L 338.046875 98.453125 L 334.363281 98.453125 L 334.363281 182.0625 L 318.402344 182.0625 L 318.402344 102.132812 L 338.046875 102.132812 L 338.046875 98.453125 L 334.363281 98.453125 L 338.046875 98.453125 "/>
<path style=" stroke:none;fill-rule:nonzero;fill:rgb(100%,100%,100%);fill-opacity:1;" d="M 232.335938 138.167969 C 232.335938 138.167969 285.234375 115.121094 324.527344 69.125 "/>
<path style=" stroke:none;fill-rule:nonzero;fill:rgb(1.568604%,1.959229%,1.959229%);fill-opacity:1;" d="M 233.808594 141.539062 C 233.941406 141.480469 247.328125 135.65625 265.679688 124.003906 C 284.027344 112.355469 307.355469 94.894531 327.324219 71.507812 C 328.652344 69.960938 328.460938 67.652344 326.914062 66.328125 C 325.367188 65.019531 323.039062 65.195312 321.730469 66.742188 C 302.421875 89.347656 279.65625 106.414062 261.730469 117.796875 C 252.761719 123.476562 245.015625 127.742188 239.539062 130.578125 C 236.785156 132.007812 234.605469 133.066406 233.117188 133.757812 C 232.382812 134.125 231.808594 134.375 231.425781 134.550781 C 231.234375 134.640625 231.101562 134.699219 230.996094 134.742188 L 230.894531 134.785156 L 230.863281 134.800781 C 229.007812 135.609375 228.15625 137.773438 228.964844 139.640625 C 229.773438 141.507812 231.953125 142.347656 233.808594 141.539062 "/>
<path style=" stroke:none;fill-rule:nonzero;fill:rgb(1.568604%,1.959229%,1.959229%);fill-opacity:1;" d="M 308.019531 71.84375 L 322.714844 70.726562 L 322.714844 84.421875 C 322.714844 86.453125 324.363281 88.097656 326.398438 88.097656 C 328.429688 88.097656 330.078125 86.453125 330.078125 84.421875 L 330.078125 66.757812 C 330.078125 65.726562 329.652344 64.753906 328.902344 64.050781 C 328.148438 63.359375 327.132812 63.003906 326.117188 63.078125 L 307.445312 64.519531 C 305.425781 64.683594 303.910156 66.445312 304.058594 68.460938 C 304.21875 70.492188 305.984375 72.007812 308.019531 71.84375 "/>
</g>
<mask id="mask2">
  <g filter="url(#alpha)">
<rect x="0" y="0" width="375" height="374.999991" style="fill:rgb(0%,0%,0%);fill-opacity:0.098;stroke:none;"/>
  </g>
</mask>
<clipPath id="clip12">
  <path d="M 28 0.203125 L 106 0.203125 L 106 78 L 28 78 Z M 28 0.203125 "/>
</clipPath>
<clipPath id="clip13">
  <path d="M 1 81 L 26 81 L 26 105.902344 L 1 105.902344 Z M 1 81 "/>
</clipPath>
<clipPath id="clip11">
  <rect x="0" y="0" width="110" height="106"/>
</clipPath>
<g id="surface11" clip-path="url(#clip11)">
<path style=" stroke:none;fill-rule:nonzero;fill:rgb(18.03894%,19.219971%,17.649841%);fill-opacity:1;" d="M 34.871094 65.019531 L 18.683594 81.144531 L 26.59375 89.027344 L 43.019531 72.660156 C 41.171875 71.339844 39.414062 69.859375 37.777344 68.226562 C 36.746094 67.199219 35.777344 66.128906 34.871094 65.019531 Z M 34.871094 65.019531 "/>
<g clip-path="url(#clip12)" clip-rule="nonzero">
<path style=" stroke:none;fill-rule:nonzero;fill:rgb(18.03894%,19.219971%,17.649841%);fill-opacity:1;" d="M 95.800781 15.457031 C 82.3125 2.019531 60.367188 2.019531 46.882812 15.457031 C 46.226562 16.109375 45.164062 16.109375 44.511719 15.457031 C 43.855469 14.804688 43.855469 13.746094 44.511719 13.09375 C 53.949219 3.691406 67.160156 0.296875 79.332031 2.890625 C 75.457031 1.597656 71.355469 0.910156 67.148438 0.910156 C 56.949219 0.910156 47.359375 4.871094 40.148438 12.054688 C 32.933594 19.242188 28.960938 28.796875 28.960938 38.960938 C 28.960938 49.121094 32.933594 58.675781 40.148438 65.863281 C 47.359375 73.046875 56.949219 77.007812 67.148438 77.007812 C 77.347656 77.007812 86.9375 73.046875 94.152344 65.863281 C 94.710938 65.304688 95.238281 64.734375 95.753906 64.152344 L 95.800781 64.195312 C 109.285156 50.761719 109.285156 28.894531 95.800781 15.457031 Z M 68.0625 61.105469 C 62.136719 61.105469 56.5625 58.804688 52.371094 54.628906 C 43.71875 46.007812 43.71875 31.980469 52.371094 23.359375 C 56.5625 19.183594 62.136719 16.882812 68.0625 16.882812 C 73.992188 16.882812 79.566406 19.183594 83.757812 23.359375 C 92.410156 31.980469 92.410156 46.007812 83.757812 54.628906 C 79.566406 58.804688 73.992188 61.105469 68.0625 61.105469 Z M 39.5625 30.832031 C 36.828125 30.832031 34.609375 28.625 34.609375 25.898438 C 34.609375 23.171875 36.828125 20.960938 39.5625 20.960938 C 42.300781 20.960938 44.515625 23.171875 44.515625 25.898438 C 44.515625 28.625 42.300781 30.832031 39.5625 30.832031 Z M 39.5625 30.832031 "/>
</g>
<g clip-path="url(#clip13)" clip-rule="nonzero">
<path style=" stroke:none;fill-rule:nonzero;fill:rgb(18.03894%,19.219971%,17.649841%);fill-opacity:1;" d="M 4.039062 92.570312 C 0.980469 95.617188 0.980469 100.574219 4.039062 103.621094 C 5.519531 105.09375 7.488281 105.90625 9.585938 105.90625 C 11.679688 105.90625 13.648438 105.09375 15.128906 103.621094 L 25.8125 92.972656 L 14.722656 81.921875 Z M 4.039062 92.570312 "/>
</g>
</g>
<mask id="mask3">
  <g filter="url(#alpha)">
<rect x="0" y="0" width="375" height="374.999991" style="fill:rgb(0%,0%,0%);fill-opacity:0.098;stroke:none;"/>
  </g>
</mask>
<clipPath id="clip15">
  <path d="M 0.5625 74 L 74.796875 74 L 74.796875 93 L 0.5625 93 Z M 0.5625 74 "/>
</clipPath>
<clipPath id="clip16">
  <path d="M 0.5625 88 L 74.796875 88 L 74.796875 99.078125 L 0.5625 99.078125 Z M 0.5625 88 "/>
</clipPath>
<clipPath id="clip17">
  <path d="M 0.5625 67 L 74.796875 67 L 74.796875 79 L 0.5625 79 Z M 0.5625 67 "/>
</clipPath>
<clipPath id="clip18">
  <path d="M 0.5625 44 L 74.796875 44 L 74.796875 70 L 0.5625 70 Z M 0.5625 44 "/>
</clipPath>
<clipPath id="clip19">
  <path d="M 0.5625 37 L 74.796875 37 L 74.796875 49 L 0.5625 49 Z M 0.5625 37 "/>
</clipPath>
<clipPath id="clip20">
  <path d="M 0.5625 14 L 74.796875 14 L 74.796875 40 L 0.5625 40 Z M 0.5625 14 "/>
</clipPath>
<clipPath id="clip21">
  <path d="M 0.5625 0.828125 L 74.796875 0.828125 L 74.796875 19 L 0.5625 19 Z M 0.5625 0.828125 "/>
</clipPath>
<clipPath id="clip14">
  <rect x="0" y="0" width="75" height="100"/>
</clipPath>
<g id="surface14" clip-path="url(#clip14)">
<g clip-path="url(#clip15)" clip-rule="nonzero">
<path style=" stroke:none;fill-rule:nonzero;fill:rgb(18.03894%,19.219971%,17.649841%);fill-opacity:1;" d="M 0.566406 74.292969 L 0.566406 83.589844 C 0.566406 85 3.238281 87.355469 10.765625 89.355469 C 17.980469 91.273438 27.597656 92.328125 37.847656 92.328125 C 48.101562 92.328125 57.71875 91.273438 64.929688 89.355469 C 72.460938 87.355469 75.132812 85 75.132812 83.589844 L 75.132812 74.292969 C 68.621094 78.878906 53.164062 81.253906 37.847656 81.253906 C 22.535156 81.253906 7.078125 78.878906 0.566406 74.292969 Z M 0.566406 74.292969 "/>
</g>
<g clip-path="url(#clip16)" clip-rule="nonzero">
<path style=" stroke:none;fill-rule:nonzero;fill:rgb(18.03894%,19.219971%,17.649841%);fill-opacity:1;" d="M 0.566406 88.554688 L 0.566406 90.480469 C 0.566406 91.890625 3.238281 94.246094 10.765625 96.246094 C 17.980469 98.160156 27.597656 99.21875 37.847656 99.21875 C 48.101562 99.21875 57.71875 98.160156 64.929688 96.246094 C 72.460938 94.246094 75.132812 91.890625 75.132812 90.480469 L 75.132812 88.554688 C 68.621094 93.140625 53.164062 95.511719 37.847656 95.511719 C 22.535156 95.511719 7.078125 93.140625 0.566406 88.554688 Z M 0.566406 88.554688 "/>
</g>
<g clip-path="url(#clip17)" clip-rule="nonzero">
<path style=" stroke:none;fill-rule:nonzero;fill:rgb(18.03894%,19.219971%,17.649841%);fill-opacity:1;" d="M 73.503906 67.113281 C 66.277344 71.039062 52.003906 73.0625 37.847656 73.0625 C 23.695312 73.0625 9.417969 71.039062 2.195312 67.113281 C 1.054688 67.957031 0.566406 68.730469 0.566406 69.332031 C 0.566406 70.742188 3.238281 73.097656 10.765625 75.097656 C 17.980469 77.011719 27.597656 78.066406 37.847656 78.066406 C 48.101562 78.066406 57.71875 77.011719 64.933594 75.097656 C 72.460938 73.097656 75.132812 70.742188 75.132812 69.332031 C 75.132812 68.730469 74.644531 67.957031 73.503906 67.113281 Z M 73.503906 67.113281 "/>
</g>
<g clip-path="url(#clip18)" clip-rule="nonzero">
<path style=" stroke:none;fill-rule:nonzero;fill:rgb(18.03894%,19.219971%,17.649841%);fill-opacity:1;" d="M 0.566406 44.957031 L 0.566406 61.144531 C 0.566406 62.554688 3.238281 64.910156 10.765625 66.910156 C 17.980469 68.824219 27.597656 69.878906 37.847656 69.878906 C 48.101562 69.878906 57.71875 68.824219 64.929688 66.910156 C 72.460938 64.910156 75.132812 62.550781 75.132812 61.144531 L 75.132812 44.957031 C 68.621094 49.542969 53.164062 51.914062 37.847656 51.914062 C 22.535156 51.914062 7.078125 49.542969 0.566406 44.957031 Z M 0.566406 44.957031 "/>
</g>
<g clip-path="url(#clip19)" clip-rule="nonzero">
<path style=" stroke:none;fill-rule:nonzero;fill:rgb(18.03894%,19.219971%,17.649841%);fill-opacity:1;" d="M 72.585938 37.167969 C 65.117188 40.785156 51.429688 42.652344 37.847656 42.652344 C 24.269531 42.652344 10.578125 40.785156 3.109375 37.167969 C 1.308594 38.246094 0.566406 39.25 0.566406 39.992188 C 0.566406 41.402344 3.238281 43.757812 10.765625 45.757812 C 17.980469 47.675781 27.597656 48.730469 37.847656 48.730469 C 48.101562 48.730469 57.71875 47.675781 64.929688 45.757812 C 72.460938 43.757812 75.132812 41.402344 75.132812 39.992188 C 75.132812 39.25 74.390625 38.246094 72.585938 37.167969 Z M 72.585938 37.167969 "/>
</g>
<g clip-path="url(#clip20)" clip-rule="nonzero">
<path style=" stroke:none;fill-rule:nonzero;fill:rgb(18.03894%,19.219971%,17.649841%);fill-opacity:1;" d="M 0.566406 14.542969 L 0.566406 30.730469 C 0.566406 32.140625 3.238281 34.496094 10.765625 36.496094 C 17.980469 38.410156 27.597656 39.464844 37.847656 39.464844 C 48.101562 39.464844 57.71875 38.410156 64.929688 36.496094 C 72.460938 34.496094 75.132812 32.140625 75.132812 30.730469 L 75.132812 14.542969 C 68.621094 19.128906 53.164062 21.5 37.847656 21.5 C 22.535156 21.5 7.078125 19.128906 0.566406 14.542969 Z M 67.402344 22.507812 C 69.742188 22.507812 71.636719 24.390625 71.636719 26.710938 C 71.636719 29.035156 69.742188 30.917969 67.402344 30.917969 C 65.0625 30.917969 63.167969 29.035156 63.167969 26.710938 C 63.167969 24.390625 65.0625 22.507812 67.402344 22.507812 Z M 67.402344 22.507812 "/>
</g>
<g clip-path="url(#clip21)" clip-rule="nonzero">
<path style=" stroke:none;fill-rule:nonzero;fill:rgb(18.03894%,19.219971%,17.649841%);fill-opacity:1;" d="M 10.765625 15.34375 C 17.980469 17.261719 27.597656 18.316406 37.847656 18.316406 C 48.101562 18.316406 57.71875 17.261719 64.929688 15.34375 C 72.460938 13.34375 75.132812 10.988281 75.132812 9.578125 C 75.132812 8.167969 72.460938 5.8125 64.929688 3.8125 C 57.71875 1.898438 48.101562 0.84375 37.847656 0.84375 C 27.597656 0.84375 17.980469 1.898438 10.765625 3.8125 C 3.238281 5.8125 0.566406 8.167969 0.566406 9.578125 C 0.566406 10.988281 3.238281 13.34375 10.765625 15.34375 Z M 10.765625 15.34375 "/>
</g>
</g>
</defs>
<g id="surface1">
<use xlink:href="#surface5" transform="matrix(1,0,0,1,219,68)" mask="url(#mask0)"/>
<use xlink:href="#surface8" transform="matrix(1,0,0,1,0,177)" mask="url(#mask1)"/>
<use xlink:href="#surface11" transform="matrix(1,0,0,1,12,64)" mask="url(#mask2)"/>
<use xlink:href="#surface14" transform="matrix(1,0,0,1,150,68)" mask="url(#mask3)"/>
</g>
</svg>
