<?xml version="1.0" encoding="UTF-8"?>
<svg xmlns="http://www.w3.org/2000/svg" xmlns:xlink="http://www.w3.org/1999/xlink" width="1440pt" height="809.999993pt" viewBox="0 0 1440 809.999993" version="1.2">
<defs>
<filter id="alpha" filterUnits="objectBoundingBox" x="0%" y="0%" width="100%" height="100%">
  <feColorMatrix type="matrix" in="SourceGraphic" values="0 0 0 0 1 0 0 0 0 1 0 0 0 0 1 0 0 0 1 0"/>
</filter>
<mask id="mask0">
  <g filter="url(#alpha)">
<rect x="0" y="0" width="1440" height="809.999993" style="fill:rgb(0%,0%,0%);fill-opacity:0.098;stroke:none;"/>
  </g>
</mask>
<clipPath id="clip2">
  <path d="M 1 84 L 26 84 L 26 108.949219 L 1 108.949219 Z M 1 84 "/>
</clipPath>
<clipPath id="clip1">
  <rect x="0" y="0" width="112" height="110"/>
</clipPath>
<g id="surface5" clip-path="url(#clip1)">
<path style=" stroke:none;fill-rule:nonzero;fill:rgb(18.03894%,19.219971%,17.649841%);fill-opacity:1;" d="M 35.054688 66.855469 L 18.449219 83.417969 L 26.5625 91.507812 L 43.414062 74.703125 C 41.515625 73.347656 39.714844 71.828125 38.03125 70.148438 C 36.976562 69.097656 35.984375 67.996094 35.054688 66.855469 Z M 35.054688 66.855469 "/>
<path style=" stroke:none;fill-rule:nonzero;fill:rgb(18.03894%,19.219971%,17.649841%);fill-opacity:1;" d="M 97.550781 15.964844 C 83.714844 2.164062 61.207031 2.164062 47.371094 15.964844 C 46.703125 16.632812 45.613281 16.632812 44.941406 15.964844 C 44.269531 15.292969 44.269531 14.207031 44.941406 13.535156 C 54.621094 3.878906 68.171875 0.394531 80.660156 3.058594 C 76.683594 1.730469 72.476562 1.027344 68.160156 1.027344 C 57.699219 1.027344 47.863281 5.089844 40.464844 12.46875 C 33.066406 19.847656 28.992188 29.660156 28.992188 40.097656 C 28.992188 50.53125 33.066406 60.34375 40.464844 67.722656 C 47.863281 75.101562 57.699219 79.167969 68.160156 79.167969 C 78.625 79.167969 88.460938 75.101562 95.859375 67.722656 C 96.433594 67.152344 96.976562 66.5625 97.503906 65.96875 L 97.550781 66.011719 C 111.382812 52.214844 111.382812 29.761719 97.550781 15.964844 Z M 69.101562 62.839844 C 63.019531 62.839844 57.300781 60.476562 53.003906 56.1875 C 44.128906 47.335938 44.128906 32.929688 53.003906 24.078125 C 57.300781 19.789062 63.019531 17.425781 69.101562 17.425781 C 75.179688 17.425781 80.898438 19.789062 85.195312 24.078125 C 94.070312 32.929688 94.070312 47.335938 85.195312 56.1875 C 80.898438 60.476562 75.179688 62.839844 69.101562 62.839844 Z M 39.867188 31.753906 C 37.058594 31.753906 34.785156 29.484375 34.785156 26.683594 C 34.785156 23.886719 37.058594 21.617188 39.867188 21.617188 C 42.671875 21.617188 44.945312 23.886719 44.945312 26.683594 C 44.945312 29.484375 42.671875 31.753906 39.867188 31.753906 Z M 39.867188 31.753906 "/>
<g clip-path="url(#clip2)" clip-rule="nonzero">
<path style=" stroke:none;fill-rule:nonzero;fill:rgb(18.03894%,19.219971%,17.649841%);fill-opacity:1;" d="M 3.425781 95.148438 C 0.289062 98.277344 0.289062 103.367188 3.425781 106.496094 C 4.945312 108.011719 6.964844 108.84375 9.117188 108.84375 C 11.265625 108.84375 13.285156 108.011719 14.804688 106.496094 L 25.761719 95.5625 L 14.386719 84.214844 Z M 3.425781 95.148438 "/>
</g>
</g>
<mask id="mask1">
  <g filter="url(#alpha)">
<rect x="0" y="0" width="1440" height="809.999993" style="fill:rgb(0%,0%,0%);fill-opacity:0.098;stroke:none;"/>
  </g>
</mask>
<clipPath id="clip4">
  <path d="M 0.660156 100 L 101.136719 100 L 101.136719 126 L 0.660156 126 Z M 0.660156 100 "/>
</clipPath>
<clipPath id="clip5">
  <path d="M 0.660156 119 L 101.136719 119 L 101.136719 134.339844 L 0.660156 134.339844 Z M 0.660156 119 "/>
</clipPath>
<clipPath id="clip6">
  <path d="M 0.660156 90 L 101.136719 90 L 101.136719 106 L 0.660156 106 Z M 0.660156 90 "/>
</clipPath>
<clipPath id="clip7">
  <path d="M 0.660156 60 L 101.136719 60 L 101.136719 95 L 0.660156 95 Z M 0.660156 60 "/>
</clipPath>
<clipPath id="clip8">
  <path d="M 0.660156 50 L 101.136719 50 L 101.136719 66 L 0.660156 66 Z M 0.660156 50 "/>
</clipPath>
<clipPath id="clip9">
  <path d="M 0.660156 19 L 101.136719 19 L 101.136719 54 L 0.660156 54 Z M 0.660156 19 "/>
</clipPath>
<clipPath id="clip10">
  <path d="M 0.660156 0.839844 L 101.136719 0.839844 L 101.136719 25 L 0.660156 25 Z M 0.660156 0.839844 "/>
</clipPath>
<clipPath id="clip3">
  <rect x="0" y="0" width="102" height="135"/>
</clipPath>
<g id="surface8" clip-path="url(#clip3)">
<g clip-path="url(#clip4)" clip-rule="nonzero">
<path style=" stroke:none;fill-rule:nonzero;fill:rgb(18.03894%,19.219971%,17.649841%);fill-opacity:1;" d="M 0.660156 100.617188 L 0.660156 113.242188 C 0.660156 115.160156 4.261719 118.359375 14.40625 121.074219 C 24.128906 123.675781 37.09375 125.109375 50.910156 125.109375 C 64.730469 125.109375 77.691406 123.675781 87.414062 121.074219 C 97.5625 118.359375 101.164062 115.15625 101.164062 113.242188 L 101.164062 100.617188 C 92.386719 106.84375 71.554688 110.066406 50.910156 110.066406 C 30.269531 110.066406 9.433594 106.84375 0.660156 100.617188 Z M 0.660156 100.617188 "/>
</g>
<g clip-path="url(#clip5)" clip-rule="nonzero">
<path style=" stroke:none;fill-rule:nonzero;fill:rgb(18.03894%,19.219971%,17.649841%);fill-opacity:1;" d="M 0.660156 119.984375 L 0.660156 122.601562 C 0.660156 124.515625 4.261719 127.714844 14.40625 130.429688 C 24.128906 133.03125 37.09375 134.464844 50.910156 134.464844 C 64.730469 134.464844 77.691406 133.03125 87.414062 130.429688 C 97.5625 127.714844 101.164062 124.515625 101.164062 122.601562 L 101.164062 119.984375 C 92.386719 126.210938 71.554688 129.433594 50.910156 129.433594 C 30.269531 129.433594 9.433594 126.210938 0.660156 119.984375 Z M 0.660156 119.984375 "/>
</g>
<g clip-path="url(#clip6)" clip-rule="nonzero">
<path style=" stroke:none;fill-rule:nonzero;fill:rgb(18.03894%,19.219971%,17.649841%);fill-opacity:1;" d="M 98.96875 90.863281 C 89.230469 96.195312 69.988281 98.949219 50.910156 98.949219 C 31.832031 98.949219 12.589844 96.195312 2.855469 90.863281 C 1.316406 92.011719 0.660156 93.058594 0.660156 93.875 C 0.660156 95.792969 4.261719 98.992188 14.410156 101.707031 C 24.132812 104.308594 37.09375 105.742188 50.910156 105.742188 C 64.730469 105.742188 77.691406 104.308594 87.414062 101.707031 C 97.5625 98.992188 101.164062 95.792969 101.164062 93.875 C 101.164062 93.058594 100.503906 92.011719 98.96875 90.863281 Z M 98.96875 90.863281 "/>
</g>
<g clip-path="url(#clip7)" clip-rule="nonzero">
<path style=" stroke:none;fill-rule:nonzero;fill:rgb(18.03894%,19.219971%,17.649841%);fill-opacity:1;" d="M 0.660156 60.773438 L 0.660156 82.757812 C 0.660156 84.671875 4.261719 87.871094 14.40625 90.585938 C 24.128906 93.1875 37.09375 94.621094 50.910156 94.621094 C 64.730469 94.621094 77.691406 93.1875 87.414062 90.585938 C 97.5625 87.871094 101.164062 84.671875 101.164062 82.757812 L 101.164062 60.773438 C 92.386719 67 71.554688 70.222656 50.910156 70.222656 C 30.269531 70.222656 9.433594 67 0.660156 60.773438 Z M 0.660156 60.773438 "/>
</g>
<g clip-path="url(#clip8)" clip-rule="nonzero">
<path style=" stroke:none;fill-rule:nonzero;fill:rgb(18.03894%,19.219971%,17.649841%);fill-opacity:1;" d="M 97.734375 50.195312 C 87.667969 55.109375 69.214844 57.644531 50.910156 57.644531 C 32.609375 57.644531 14.15625 55.109375 4.089844 50.195312 C 1.660156 51.660156 0.660156 53.023438 0.660156 54.03125 C 0.660156 55.949219 4.261719 59.148438 14.40625 61.863281 C 24.128906 64.464844 37.09375 65.898438 50.910156 65.898438 C 64.730469 65.898438 77.691406 64.464844 87.414062 61.863281 C 97.5625 59.148438 101.164062 55.945312 101.164062 54.03125 C 101.164062 53.023438 100.164062 51.660156 97.734375 50.195312 Z M 97.734375 50.195312 "/>
</g>
<g clip-path="url(#clip9)" clip-rule="nonzero">
<path style=" stroke:none;fill-rule:nonzero;fill:rgb(18.03894%,19.219971%,17.649841%);fill-opacity:1;" d="M 0.660156 19.46875 L 0.660156 41.453125 C 0.660156 43.367188 4.261719 46.566406 14.40625 49.28125 C 24.128906 51.882812 37.09375 53.316406 50.910156 53.316406 C 64.730469 53.316406 77.691406 51.882812 87.414062 49.28125 C 97.5625 46.566406 101.164062 43.367188 101.164062 41.453125 L 101.164062 19.46875 C 92.386719 25.695312 71.554688 28.917969 50.910156 28.917969 C 30.269531 28.917969 9.433594 25.695312 0.660156 19.46875 Z M 90.746094 30.285156 C 93.898438 30.285156 96.453125 32.84375 96.453125 35.996094 C 96.453125 39.148438 93.898438 41.707031 90.746094 41.707031 C 87.59375 41.707031 85.039062 39.148438 85.039062 35.996094 C 85.035156 32.84375 87.59375 30.285156 90.746094 30.285156 Z M 90.746094 30.285156 "/>
</g>
<g clip-path="url(#clip10)" clip-rule="nonzero">
<path style=" stroke:none;fill-rule:nonzero;fill:rgb(18.03894%,19.219971%,17.649841%);fill-opacity:1;" d="M 14.40625 20.558594 C 24.128906 23.160156 37.09375 24.59375 50.910156 24.59375 C 64.730469 24.59375 77.691406 23.160156 87.414062 20.558594 C 97.5625 17.84375 101.164062 14.644531 101.164062 12.726562 C 101.164062 10.8125 97.5625 7.613281 87.414062 4.898438 C 77.691406 2.296875 64.730469 0.863281 50.910156 0.863281 C 37.09375 0.863281 24.128906 2.296875 14.40625 4.898438 C 4.261719 7.613281 0.660156 10.8125 0.660156 12.726562 C 0.660156 14.644531 4.261719 17.84375 14.40625 20.558594 Z M 14.40625 20.558594 "/>
</g>
</g>
<mask id="mask2">
  <g filter="url(#alpha)">
<rect x="0" y="0" width="1440" height="809.999993" style="fill:rgb(0%,0%,0%);fill-opacity:0.098;stroke:none;"/>
  </g>
</mask>
<clipPath id="clip12">
  <path d="M 56 0.839844 L 259 0.839844 L 259 310.488281 L 56 310.488281 Z M 56 0.839844 "/>
</clipPath>
<clipPath id="clip13">
  <path d="M 73 0.839844 L 236 0.839844 L 236 12 L 73 12 Z M 73 0.839844 "/>
</clipPath>
<clipPath id="clip14">
  <path d="M 263 300 L 312.546875 300 L 312.546875 310.488281 L 263 310.488281 Z M 263 300 "/>
</clipPath>
<clipPath id="clip15">
  <path d="M 0.769531 300 L 249 300 L 249 310.488281 L 0.769531 310.488281 Z M 0.769531 300 "/>
</clipPath>
<clipPath id="clip16">
  <path d="M 204 0.839844 L 239 0.839844 L 239 39 L 204 39 Z M 204 0.839844 "/>
</clipPath>
<clipPath id="clip17">
  <path d="M 73 0.839844 L 108 0.839844 L 108 39 L 73 39 Z M 73 0.839844 "/>
</clipPath>
<clipPath id="clip11">
  <rect x="0" y="0" width="314" height="311"/>
</clipPath>
<g id="surface11" clip-path="url(#clip11)">
<g clip-path="url(#clip12)" clip-rule="nonzero">
<path style=" stroke:none;fill-rule:nonzero;fill:rgb(9.408569%,16.079712%,20.779419%);fill-opacity:1;" d="M 253.515625 310.632812 L 61.746094 310.632812 C 60.183594 310.632812 58.703125 309.941406 57.703125 308.738281 C 56.703125 307.535156 56.285156 305.953125 56.5625 304.414062 L 96.886719 81.488281 C 96.964844 81.0625 97.089844 80.652344 97.269531 80.257812 C 98.199219 78.195312 120.210938 29.394531 136.519531 3.238281 C 137.480469 1.695312 139.171875 0.757812 140.988281 0.757812 L 167.816406 0.757812 C 169.667969 0.757812 171.382812 1.734375 172.335938 3.328125 C 187.953125 29.492188 208.660156 78.304688 209.535156 80.371094 C 209.660156 80.667969 209.761719 80.980469 209.832031 81.300781 L 258.660156 304.222656 C 259.003906 305.785156 258.621094 307.417969 257.621094 308.664062 C 256.617188 309.910156 255.109375 310.632812 253.515625 310.632812 Z M 68.054688 300.074219 L 246.964844 300.074219 L 199.648438 84.046875 C 197.578125 79.183594 179.101562 36.097656 164.804688 11.316406 L 143.929688 11.316406 C 129.089844 35.878906 109.625 78.519531 107.132812 84.015625 Z M 68.054688 300.074219 "/>
</g>
<path style=" stroke:none;fill-rule:nonzero;fill:rgb(9.408569%,16.079712%,20.779419%);fill-opacity:1;" d="M 227.5625 306.628906 C 226.601562 306.628906 225.628906 306.363281 224.753906 305.8125 L 166.117188 268.652344 C 163.660156 267.09375 162.925781 263.835938 164.480469 261.367188 C 166.035156 258.902344 169.285156 258.171875 171.746094 259.726562 L 230.382812 296.886719 C 232.839844 298.445312 233.574219 301.703125 232.019531 304.167969 C 231.015625 305.757812 229.308594 306.628906 227.5625 306.628906 Z M 227.5625 306.628906 "/>
<path style=" stroke:none;fill-rule:nonzero;fill:rgb(9.408569%,16.079712%,20.779419%);fill-opacity:1;" d="M 140.757812 251.621094 C 139.796875 251.621094 138.820312 251.359375 137.949219 250.804688 L 82.796875 215.859375 C 80.339844 214.300781 79.605469 211.039062 81.160156 208.574219 C 82.714844 206.109375 85.964844 205.375 88.429688 206.933594 L 143.578125 241.878906 C 146.035156 243.4375 146.769531 246.699219 145.214844 249.164062 C 144.210938 250.753906 142.503906 251.621094 140.757812 251.621094 Z M 140.757812 251.621094 "/>
<path style=" stroke:none;fill-rule:nonzero;fill:rgb(9.408569%,16.079712%,20.779419%);fill-opacity:1;" d="M 81.640625 306.628906 C 79.890625 306.628906 78.175781 305.753906 77.175781 304.152344 C 75.628906 301.683594 76.375 298.425781 78.839844 296.875 L 221.914062 206.925781 C 224.375 205.375 227.628906 206.121094 229.175781 208.59375 C 230.71875 211.0625 229.976562 214.320312 227.511719 215.871094 L 84.433594 305.820312 C 83.566406 306.367188 82.597656 306.628906 81.640625 306.628906 Z M 81.640625 306.628906 "/>
<path style=" stroke:none;fill-rule:nonzero;fill:rgb(9.408569%,16.079712%,20.779419%);fill-opacity:1;" d="M 84.324219 212.328125 C 82.570312 212.328125 80.855469 211.449219 79.855469 209.851562 C 78.308594 207.378906 79.054688 204.125 81.519531 202.574219 L 137.964844 167.089844 C 140.429688 165.535156 143.679688 166.285156 145.226562 168.757812 C 146.769531 171.226562 146.023438 174.484375 143.558594 176.035156 L 87.117188 211.519531 C 86.246094 212.066406 85.277344 212.328125 84.324219 212.328125 Z M 84.324219 212.328125 "/>
<path style=" stroke:none;fill-rule:nonzero;fill:rgb(9.408569%,16.079712%,20.779419%);fill-opacity:1;" d="M 168.9375 159.128906 C 167.183594 159.128906 165.46875 158.253906 164.46875 156.652344 C 162.925781 154.183594 163.667969 150.925781 166.132812 149.375 L 203.511719 125.875 C 205.972656 124.324219 209.226562 125.070312 210.773438 127.539062 C 212.316406 130.011719 211.574219 133.269531 209.109375 134.820312 L 171.730469 158.320312 C 170.859375 158.867188 169.890625 159.128906 168.9375 159.128906 Z M 168.9375 159.128906 "/>
<path style=" stroke:none;fill-rule:nonzero;fill:rgb(9.408569%,16.079712%,20.779419%);fill-opacity:1;" d="M 224.882812 212.328125 C 223.929688 212.328125 222.960938 212.066406 222.09375 211.519531 L 95.648438 132.019531 C 93.183594 130.46875 92.4375 127.210938 93.984375 124.742188 C 95.527344 122.269531 98.777344 121.523438 101.242188 123.074219 L 227.6875 202.574219 C 230.152344 204.125 230.898438 207.382812 229.351562 209.851562 C 228.351562 211.449219 226.636719 212.328125 224.882812 212.328125 Z M 224.882812 212.328125 "/>
<path style=" stroke:none;fill-rule:nonzero;fill:rgb(9.408569%,16.079712%,20.779419%);fill-opacity:1;" d="M 209.808594 132.828125 C 208.851562 132.828125 207.886719 132.566406 207.015625 132.019531 L 149.457031 95.832031 C 146.992188 94.28125 146.246094 91.023438 147.792969 88.554688 C 149.339844 86.082031 152.589844 85.335938 155.054688 86.886719 L 212.613281 123.074219 C 215.078125 124.621094 215.824219 127.882812 214.277344 130.351562 C 213.273438 131.949219 211.5625 132.828125 209.808594 132.828125 Z M 209.808594 132.828125 "/>
<path style=" stroke:none;fill-rule:nonzero;fill:rgb(9.408569%,16.079712%,20.779419%);fill-opacity:1;" d="M 265.875 96.640625 L 40.472656 96.640625 C 37.5625 96.640625 35.203125 94.273438 35.203125 91.359375 C 35.203125 88.445312 37.5625 86.078125 40.472656 86.078125 L 265.875 86.078125 C 268.785156 86.078125 271.144531 88.445312 271.144531 91.359375 C 271.144531 94.273438 268.785156 96.640625 265.875 96.640625 Z M 265.875 96.640625 "/>
<g clip-path="url(#clip13)" clip-rule="nonzero">
<path style=" stroke:none;fill-rule:nonzero;fill:rgb(9.408569%,16.079712%,20.779419%);fill-opacity:1;" d="M 230.679688 11.316406 L 78.53125 11.316406 C 75.621094 11.316406 73.261719 8.953125 73.261719 6.035156 C 73.261719 3.121094 75.621094 0.757812 78.53125 0.757812 L 230.683594 0.757812 C 233.589844 0.757812 235.949219 3.121094 235.949219 6.035156 C 235.949219 8.953125 233.589844 11.316406 230.679688 11.316406 Z M 230.679688 11.316406 "/>
</g>
<g clip-path="url(#clip14)" clip-rule="nonzero">
<path style=" stroke:none;fill-rule:nonzero;fill:rgb(9.408569%,16.079712%,20.779419%);fill-opacity:1;" d="M 306.984375 310.632812 L 268.398438 310.632812 C 265.488281 310.632812 263.128906 308.269531 263.128906 305.355469 C 263.128906 302.4375 265.488281 300.074219 268.398438 300.074219 L 306.984375 300.074219 C 309.894531 300.074219 312.25 302.4375 312.25 305.355469 C 312.25 308.269531 309.894531 310.632812 306.984375 310.632812 Z M 306.984375 310.632812 "/>
</g>
<g clip-path="url(#clip15)" clip-rule="nonzero">
<path style=" stroke:none;fill-rule:nonzero;fill:rgb(9.408569%,16.079712%,20.779419%);fill-opacity:1;" d="M 242.769531 310.632812 L 6.195312 310.632812 C 3.289062 310.632812 0.929688 308.269531 0.929688 305.355469 C 0.929688 302.4375 3.289062 300.074219 6.195312 300.074219 L 242.769531 300.074219 C 245.675781 300.074219 248.035156 302.4375 248.035156 305.355469 C 248.035156 308.269531 245.675781 310.632812 242.769531 310.632812 Z M 242.769531 310.632812 "/>
</g>
<path style=" stroke:none;fill-rule:nonzero;fill:rgb(9.408569%,16.079712%,20.779419%);fill-opacity:1;" d="M 63.976562 123.777344 L 49.253906 123.777344 C 43.640625 123.777344 39.40625 118.328125 39.40625 111.105469 L 39.40625 91.359375 C 39.40625 88.445312 41.765625 86.078125 44.671875 86.078125 L 68.554688 86.078125 C 71.464844 86.078125 73.820312 88.445312 73.820312 91.359375 L 73.820312 111.105469 C 73.820312 118.332031 69.589844 123.777344 63.976562 123.777344 Z M 50.320312 113.21875 L 62.910156 113.21875 C 63.089844 112.796875 63.289062 112.089844 63.289062 111.105469 L 63.289062 96.640625 L 49.941406 96.640625 L 49.941406 111.105469 C 49.941406 112.089844 50.140625 112.796875 50.320312 113.21875 Z M 50.320312 113.21875 "/>
<path style=" stroke:none;fill-rule:nonzero;fill:rgb(9.408569%,16.079712%,20.779419%);fill-opacity:1;" d="M 256.738281 123.777344 L 242.015625 123.777344 C 236.398438 123.777344 232.167969 118.328125 232.167969 111.105469 L 232.167969 91.359375 C 232.167969 88.445312 234.523438 86.078125 237.433594 86.078125 L 261.320312 86.078125 C 264.226562 86.078125 266.585938 88.445312 266.585938 91.359375 L 266.585938 111.105469 C 266.585938 118.332031 262.351562 123.777344 256.738281 123.777344 Z M 243.082031 113.21875 L 255.671875 113.21875 C 255.851562 112.796875 256.054688 112.089844 256.054688 111.105469 L 256.054688 96.640625 L 242.703125 96.640625 L 242.703125 111.105469 C 242.703125 112.089844 242.902344 112.796875 243.082031 113.21875 Z M 243.082031 113.21875 "/>
<g clip-path="url(#clip16)" clip-rule="nonzero">
<path style=" stroke:none;fill-rule:nonzero;fill:rgb(9.408569%,16.079712%,20.779419%);fill-opacity:1;" d="M 229.117188 38.457031 L 214.394531 38.457031 C 208.78125 38.457031 204.546875 33.007812 204.546875 25.78125 L 204.546875 6.035156 C 204.546875 3.121094 206.90625 0.757812 209.8125 0.757812 L 233.695312 0.757812 C 236.605469 0.757812 238.964844 3.121094 238.964844 6.035156 L 238.964844 25.78125 C 238.964844 33.007812 234.730469 38.457031 229.117188 38.457031 Z M 215.460938 27.898438 L 228.050781 27.898438 C 228.230469 27.476562 228.433594 26.765625 228.433594 25.78125 L 228.433594 11.316406 L 215.082031 11.316406 L 215.082031 25.78125 C 215.078125 26.765625 215.28125 27.476562 215.460938 27.898438 Z M 215.460938 27.898438 "/>
</g>
<g clip-path="url(#clip17)" clip-rule="nonzero">
<path style=" stroke:none;fill-rule:nonzero;fill:rgb(9.408569%,16.079712%,20.779419%);fill-opacity:1;" d="M 97.828125 38.457031 L 83.109375 38.457031 C 77.496094 38.457031 73.261719 33.007812 73.261719 25.78125 L 73.261719 6.035156 C 73.261719 3.121094 75.621094 0.757812 78.527344 0.757812 L 102.410156 0.757812 C 105.316406 0.757812 107.675781 3.121094 107.675781 6.035156 L 107.675781 25.78125 C 107.675781 33.007812 103.441406 38.457031 97.828125 38.457031 Z M 84.175781 27.898438 L 96.761719 27.898438 C 96.945312 27.476562 97.144531 26.765625 97.144531 25.78125 L 97.144531 11.316406 L 83.796875 11.316406 L 83.796875 25.78125 C 83.796875 26.765625 83.996094 27.476562 84.175781 27.898438 Z M 84.175781 27.898438 "/>
</g>
</g>
<mask id="mask3">
  <g filter="url(#alpha)">
<rect x="0" y="0" width="1440" height="809.999993" style="fill:rgb(0%,0%,0%);fill-opacity:0.098;stroke:none;"/>
  </g>
</mask>
<clipPath id="clip19">
  <path d="M 64 206 L 212 206 L 212 246.574219 L 64 246.574219 Z M 64 206 "/>
</clipPath>
<clipPath id="clip20">
  <path d="M 1 0.796875 L 275 0.796875 L 275 190 L 1 190 Z M 1 0.796875 "/>
</clipPath>
<clipPath id="clip18">
  <rect x="0" y="0" width="430" height="248"/>
</clipPath>
<g id="surface14" clip-path="url(#clip18)">
<path style=" stroke:none;fill-rule:nonzero;fill:rgb(100%,100%,100%);fill-opacity:1;" d="M 184.015625 210.617188 L 93.648438 210.617188 L 93.648438 162.03125 L 184.015625 162.03125 L 184.015625 210.617188 "/>
<path style=" stroke:none;fill-rule:nonzero;fill:rgb(1.568604%,1.959229%,1.959229%);fill-opacity:1;" d="M 184.015625 210.617188 L 184.015625 206.027344 L 98.242188 206.027344 L 98.242188 166.617188 L 179.421875 166.617188 L 179.421875 210.617188 L 184.015625 210.617188 L 184.015625 206.027344 L 184.015625 210.617188 L 188.613281 210.617188 L 188.613281 162.03125 C 188.613281 160.820312 188.117188 159.644531 187.269531 158.78125 C 186.40625 157.917969 185.230469 157.441406 184.015625 157.441406 L 93.648438 157.441406 C 92.433594 157.441406 91.257812 157.917969 90.394531 158.78125 C 89.53125 159.644531 89.054688 160.820312 89.054688 162.03125 L 89.054688 210.617188 C 89.054688 211.828125 89.53125 213.003906 90.394531 213.867188 C 91.257812 214.710938 92.433594 215.207031 93.648438 215.207031 L 184.015625 215.207031 C 185.230469 215.207031 186.40625 214.710938 187.269531 213.867188 C 188.117188 213.003906 188.613281 211.828125 188.613281 210.617188 L 184.015625 210.617188 "/>
<path style=" stroke:none;fill-rule:nonzero;fill:rgb(100%,100%,100%);fill-opacity:1;" d="M 182.378906 210.617188 L 138.613281 210.617188 L 138.003906 210.691406 L 137.398438 210.617188 L 93.648438 210.617188 L 69.070312 226.367188 L 69.070312 242.113281 L 206.957031 242.113281 L 206.957031 226.367188 L 182.378906 210.617188 "/>
<g clip-path="url(#clip19)" clip-rule="nonzero">
<path style=" stroke:none;fill-rule:nonzero;fill:rgb(1.568604%,1.959229%,1.959229%);fill-opacity:1;" d="M 182.378906 210.617188 L 182.378906 206.027344 L 138.613281 206.027344 C 138.410156 206.027344 138.28125 206.027344 138.097656 206.066406 L 137.933594 206.066406 C 137.730469 206.027344 137.601562 206.027344 137.398438 206.027344 L 93.648438 206.027344 C 92.765625 206.027344 91.902344 206.285156 91.148438 206.761719 L 66.570312 222.511719 C 65.265625 223.355469 64.476562 224.804688 64.476562 226.367188 L 64.476562 242.113281 C 64.476562 243.324219 64.953125 244.519531 65.816406 245.363281 C 66.664062 246.207031 67.859375 246.703125 69.070312 246.703125 L 206.957031 246.703125 C 208.152344 246.703125 209.347656 246.207031 210.195312 245.363281 C 211.058594 244.519531 211.554688 243.324219 211.554688 242.113281 L 211.554688 226.367188 C 211.554688 224.804688 210.746094 223.355469 209.441406 222.511719 L 184.863281 206.761719 C 184.109375 206.285156 183.246094 206.027344 182.378906 206.027344 L 182.378906 210.617188 L 179.878906 214.488281 L 202.363281 228.878906 L 202.363281 237.527344 L 73.667969 237.527344 L 73.667969 228.878906 L 94.992188 215.207031 L 137.140625 215.207031 L 137.492188 215.242188 C 137.820312 215.277344 138.1875 215.277344 138.519531 215.242188 L 138.871094 215.207031 L 182.378906 215.207031 L 182.378906 210.617188 L 179.878906 214.488281 L 182.378906 210.617188 "/>
</g>
<path style=" stroke:none;fill-rule:nonzero;fill:rgb(100%,100%,100%);fill-opacity:1;" d="M 5.972656 180.476562 C 5.972656 182.699219 7.785156 184.535156 10.027344 184.535156 L 265.984375 184.535156 C 268.226562 184.535156 270.046875 182.699219 270.046875 180.476562 L 270.046875 9.496094 C 270.046875 7.238281 268.226562 5.441406 265.984375 5.441406 L 10.027344 5.441406 C 7.785156 5.441406 5.972656 7.238281 5.972656 9.496094 L 5.972656 180.476562 "/>
<g clip-path="url(#clip20)" clip-rule="nonzero">
<path style=" stroke:none;fill-rule:nonzero;fill:rgb(1.568604%,1.959229%,1.959229%);fill-opacity:1;" d="M 157.363281 189.121094 C 159.898438 189.121094 161.957031 187.046875 161.957031 184.535156 C 161.957031 182 159.898438 179.945312 157.363281 179.945312 C 154.824219 179.945312 152.765625 182 152.765625 184.535156 C 152.765625 187.046875 154.824219 189.121094 157.363281 189.121094 Z M 172.492188 189.121094 L 265.984375 189.121094 C 268.355469 189.121094 270.542969 188.132812 272.105469 186.589844 C 273.667969 185.03125 274.640625 182.84375 274.640625 180.476562 L 274.640625 149.953125 C 274.640625 147.417969 272.582031 145.363281 270.046875 145.363281 C 267.492188 145.363281 265.453125 147.417969 265.453125 149.953125 L 265.453125 180.476562 L 265.984375 180.476562 L 265.597656 180.089844 L 265.453125 180.476562 L 265.984375 180.476562 L 265.597656 180.089844 L 265.984375 180.476562 L 265.984375 179.945312 L 265.597656 180.089844 L 265.984375 180.476562 L 265.984375 179.945312 L 172.492188 179.945312 C 169.972656 179.945312 167.894531 182 167.894531 184.535156 C 167.894531 187.046875 169.972656 189.121094 172.492188 189.121094 Z M 274.640625 126.695312 C 274.640625 124.164062 272.582031 122.105469 270.046875 122.105469 C 267.492188 122.105469 265.453125 124.164062 265.453125 126.695312 C 265.453125 129.230469 267.492188 131.285156 270.046875 131.285156 C 272.582031 131.285156 274.640625 129.230469 274.640625 126.695312 Z M 274.640625 111.589844 L 274.640625 9.496094 C 274.640625 7.113281 273.667969 4.925781 272.105469 3.386719 C 270.542969 1.824219 268.355469 0.851562 265.984375 0.851562 L 244.183594 0.851562 C 241.644531 0.851562 239.585938 2.90625 239.585938 5.441406 C 239.585938 7.972656 241.644531 10.03125 244.183594 10.03125 L 265.984375 10.03125 L 265.984375 9.496094 L 265.597656 9.863281 L 265.984375 10.03125 L 265.984375 9.496094 L 265.597656 9.863281 L 265.984375 9.496094 L 265.453125 9.496094 L 265.597656 9.863281 L 265.984375 9.496094 L 265.453125 9.496094 L 265.453125 111.589844 C 265.453125 114.121094 267.492188 116.179688 270.046875 116.179688 C 272.582031 116.179688 274.640625 114.121094 274.640625 111.589844 Z M 220.890625 0.851562 C 218.355469 0.851562 216.296875 2.90625 216.296875 5.441406 C 216.296875 7.972656 218.355469 10.03125 220.890625 10.03125 C 223.429688 10.03125 225.488281 7.972656 225.488281 5.441406 C 225.488281 2.90625 223.429688 0.851562 220.890625 0.851562 Z M 205.761719 0.851562 L 75.339844 0.851562 C 72.800781 0.851562 70.742188 2.90625 70.742188 5.441406 C 70.742188 7.972656 72.800781 10.03125 75.339844 10.03125 L 205.761719 10.03125 C 208.300781 10.03125 210.359375 7.972656 210.359375 5.441406 C 210.359375 2.90625 208.300781 0.851562 205.761719 0.851562 Z M 52.046875 0.851562 C 49.511719 0.851562 47.453125 2.90625 47.453125 5.441406 C 47.453125 7.972656 49.511719 10.03125 52.046875 10.03125 C 54.585938 10.03125 56.644531 7.972656 56.644531 5.441406 C 56.644531 2.90625 54.585938 0.851562 52.046875 0.851562 Z M 36.902344 0.851562 L 10.027344 0.851562 C 5.246094 0.851562 1.378906 4.707031 1.378906 9.496094 L 1.378906 106.503906 C 1.378906 109.039062 3.4375 111.09375 5.972656 111.09375 C 8.5 111.09375 10.558594 109.039062 10.558594 106.503906 L 10.558594 9.496094 L 10.027344 9.496094 L 10.027344 10.03125 C 10.320312 10.03125 10.558594 9.792969 10.558594 9.496094 L 10.027344 9.496094 L 10.027344 10.03125 L 36.902344 10.03125 C 39.457031 10.03125 41.496094 7.972656 41.496094 5.441406 C 41.496094 2.90625 39.457031 0.851562 36.902344 0.851562 Z M 1.378906 129.761719 C 1.378906 132.292969 3.4375 134.351562 5.972656 134.351562 C 8.5 134.351562 10.558594 132.292969 10.558594 129.761719 C 10.558594 127.230469 8.5 125.171875 5.972656 125.171875 C 3.4375 125.171875 1.378906 127.230469 1.378906 129.761719 Z M 1.378906 144.886719 L 1.378906 180.476562 C 1.378906 182.84375 2.347656 185.03125 3.90625 186.570312 C 5.457031 188.132812 7.636719 189.121094 10.027344 189.121094 L 134.070312 189.121094 C 136.609375 189.121094 138.667969 187.046875 138.667969 184.535156 C 138.667969 182 136.609375 179.945312 134.070312 179.945312 L 10.027344 179.945312 L 10.027344 180.476562 L 10.414062 180.09375 L 10.027344 179.945312 L 10.027344 180.476562 L 10.414062 180.089844 L 10.027344 180.476562 L 10.558594 180.476562 L 10.414062 180.089844 L 10.027344 180.476562 L 10.558594 180.476562 L 10.558594 144.886719 C 10.558594 142.335938 8.5 140.296875 5.972656 140.296875 C 3.4375 140.296875 1.378906 142.335938 1.378906 144.886719 "/>
</g>
<path style=" stroke:none;fill-rule:nonzero;fill:rgb(100%,100%,100%);fill-opacity:1;" d="M 5.972656 146.722656 L 5.972656 180.476562 C 5.972656 182.699219 7.785156 184.535156 10.027344 184.535156 L 265.984375 184.535156 C 268.226562 184.535156 270.046875 182.699219 270.046875 180.476562 L 270.046875 146.722656 L 5.964844 146.722656 "/>
<path style=" stroke:none;fill-rule:nonzero;fill:rgb(1.568604%,1.959229%,1.959229%);fill-opacity:1;" d="M 5.972656 146.722656 L 1.378906 146.722656 L 1.378906 180.476562 C 1.378906 182.84375 2.347656 185.03125 3.90625 186.570312 C 5.457031 188.132812 7.636719 189.121094 10.027344 189.121094 L 265.984375 189.121094 C 268.355469 189.121094 270.542969 188.132812 272.105469 186.589844 C 273.667969 185.03125 274.640625 182.84375 274.640625 180.476562 L 274.640625 146.722656 C 274.640625 145.511719 274.144531 144.335938 273.300781 143.472656 C 272.4375 142.609375 271.242188 142.132812 270.046875 142.132812 L 5.964844 142.132812 C 4.761719 142.132812 3.582031 142.609375 2.71875 143.472656 C 1.863281 144.335938 1.378906 145.511719 1.378906 146.722656 L 5.972656 146.722656 L 5.972656 151.3125 L 265.460938 151.3125 L 265.441406 180.476562 L 265.976562 180.476562 L 265.589844 180.089844 L 265.441406 180.476562 L 265.976562 180.476562 L 265.589844 180.089844 L 265.976562 180.476562 L 265.976562 179.945312 L 265.589844 180.09375 L 265.976562 180.476562 L 265.976562 179.945312 L 10.015625 179.945312 L 10.015625 180.476562 L 10.402344 180.09375 L 10.015625 179.945312 L 10.015625 180.476562 L 10.402344 180.089844 L 10.015625 180.476562 L 10.550781 180.476562 L 10.402344 180.089844 L 10.015625 180.476562 L 10.550781 180.476562 L 10.550781 146.722656 L 5.964844 146.722656 L 5.964844 151.3125 L 5.964844 146.722656 "/>
<path style=" stroke:none;fill-rule:nonzero;fill:rgb(100%,100%,100%);fill-opacity:1;" d="M 147.25 166.746094 C 147.25 171.851562 143.117188 175.980469 138.003906 175.980469 C 132.914062 175.980469 128.777344 171.851562 128.777344 166.746094 C 128.777344 161.644531 132.914062 157.515625 138.003906 157.515625 C 143.117188 157.515625 147.25 161.644531 147.25 166.746094 "/>
<path style=" stroke:none;fill-rule:nonzero;fill:rgb(1.568604%,1.959229%,1.959229%);fill-opacity:1;" d="M 147.25 166.746094 L 142.65625 166.746094 C 142.65625 168.050781 142.140625 169.171875 141.296875 170.03125 C 140.433594 170.878906 139.308594 171.390625 138.003906 171.390625 C 136.71875 171.390625 135.578125 170.878906 134.714844 170.03125 C 133.871094 169.171875 133.371094 168.050781 133.371094 166.746094 C 133.371094 165.445312 133.871094 164.324219 134.714844 163.480469 C 135.578125 162.636719 136.71875 162.121094 138.003906 162.105469 C 139.308594 162.121094 140.433594 162.636719 141.296875 163.480469 C 142.140625 164.324219 142.65625 165.445312 142.65625 166.746094 L 151.847656 166.746094 C 151.847656 162.949219 150.285156 159.460938 147.785156 156.984375 C 145.304688 154.484375 141.808594 152.925781 138.003906 152.925781 C 134.199219 152.925781 130.707031 154.484375 128.226562 156.984375 C 125.726562 159.460938 124.183594 162.949219 124.183594 166.746094 C 124.183594 170.546875 125.726562 174.035156 128.226562 176.53125 C 130.707031 179.007812 134.199219 180.570312 138.003906 180.570312 C 141.808594 180.570312 145.304688 179.007812 147.785156 176.53125 C 150.285156 174.035156 151.847656 170.546875 151.847656 166.746094 L 147.25 166.746094 "/>
<path style=" stroke:none;fill-rule:nonzero;fill:rgb(1.568604%,1.959229%,1.959229%);fill-opacity:1;" d="M 206.957031 221.777344 L 76.535156 221.777344 C 73.996094 221.777344 71.9375 223.832031 71.9375 226.367188 C 71.9375 228.898438 73.996094 230.953125 76.535156 230.953125 L 206.957031 230.953125 C 209.496094 230.953125 211.554688 228.898438 211.554688 226.367188 C 211.554688 223.832031 209.496094 221.777344 206.957031 221.777344 "/>
<path style=" stroke:none;fill-rule:nonzero;fill:rgb(1.568604%,1.959229%,1.959229%);fill-opacity:1;" d="M 91.039062 85.339844 C 90.449219 82.882812 87.96875 81.359375 85.503906 81.964844 C 83.023438 82.550781 81.515625 85.03125 82.105469 87.488281 C 82.691406 89.949219 85.175781 91.472656 87.636719 90.886719 C 90.117188 90.296875 91.644531 87.800781 91.039062 85.339844 Z M 89.769531 71.648438 C 90.375 58.875 95.964844 47.417969 104.640625 39.140625 C 113.335938 30.863281 125.046875 25.777344 138.003906 25.777344 C 154.089844 25.777344 168.300781 33.617188 177.105469 45.675781 C 178.59375 47.730469 181.460938 48.191406 183.519531 46.703125 C 185.5625 45.199219 186.019531 42.335938 184.53125 40.28125 C 174.109375 25.945312 157.125 16.601562 138.003906 16.601562 C 122.621094 16.601562 108.59375 22.660156 98.300781 32.515625 C 87.96875 42.335938 81.3125 56.011719 80.578125 71.207031 C 80.449219 73.742188 82.417969 75.890625 84.953125 76 C 87.472656 76.128906 89.640625 74.183594 89.769531 71.648438 Z M 185.46875 65.003906 C 185.929688 67.480469 188.335938 69.132812 190.835938 68.65625 C 193.335938 68.179688 194.972656 65.792969 194.496094 63.296875 C 194.035156 60.800781 191.628906 59.167969 189.128906 59.644531 C 186.628906 60.101562 184.992188 62.507812 185.46875 65.003906 Z M 186.316406 74.015625 C 186.316406 87.34375 180.910156 99.382812 172.160156 108.121094 C 163.410156 116.859375 151.351562 122.253906 138.003906 122.253906 C 122.765625 122.253906 109.21875 115.222656 100.359375 104.230469 C 98.757812 102.265625 95.871094 101.933594 93.886719 103.53125 C 91.921875 105.128906 91.609375 108.011719 93.1875 109.992188 C 103.722656 123.042969 119.898438 131.433594 138.003906 131.433594 C 169.769531 131.433594 195.503906 105.734375 195.503906 74.015625 C 195.503906 71.484375 193.445312 69.425781 190.910156 69.425781 C 188.375 69.425781 186.316406 71.484375 186.316406 74.015625 "/>
<path style=" stroke:none;fill-rule:nonzero;fill:rgb(1.568604%,1.959229%,1.959229%);fill-opacity:1;" d="M 124.511719 129.835938 C 126.976562 130.421875 129.457031 128.898438 130.046875 126.4375 C 130.652344 123.980469 129.125 121.5 126.664062 120.914062 C 124.183594 120.308594 121.71875 121.832031 121.113281 124.292969 C 120.523438 126.769531 122.050781 129.230469 124.511719 129.835938 Z M 142.601562 124.253906 L 142.601562 21.191406 C 142.601562 19.976562 142.105469 18.804688 141.257812 17.960938 C 140.394531 17.097656 139.21875 16.601562 138.003906 16.601562 C 106.257812 16.601562 80.523438 42.296875 80.503906 74.015625 C 80.503906 92.097656 88.886719 108.25 101.976562 118.765625 C 103.960938 120.34375 106.847656 120.035156 108.445312 118.050781 C 110.027344 116.085938 109.714844 113.203125 107.746094 111.609375 C 96.738281 102.742188 89.714844 89.234375 89.714844 74.015625 C 89.714844 60.691406 95.101562 48.648438 103.851562 39.914062 C 112.601562 31.175781 124.660156 25.777344 138.003906 25.777344 L 138.003906 21.191406 L 133.410156 21.191406 L 133.410156 124.253906 C 133.410156 126.769531 135.46875 128.84375 138.003906 128.84375 C 140.542969 128.84375 142.601562 126.769531 142.601562 124.253906 "/>
<path style=" stroke:none;fill-rule:nonzero;fill:rgb(1.568604%,1.959229%,1.959229%);fill-opacity:1;" d="M 142.601562 56.359375 C 142.601562 53.824219 140.542969 51.769531 138.003906 51.769531 C 135.46875 51.769531 133.410156 53.824219 133.410156 56.359375 C 133.410156 58.890625 135.46875 60.949219 138.003906 60.949219 C 140.542969 60.949219 142.601562 58.890625 142.601562 56.359375 Z M 142.601562 41.253906 L 142.601562 21.191406 C 142.601562 19.976562 142.105469 18.804688 141.257812 17.960938 C 140.394531 17.097656 139.21875 16.601562 138.003906 16.601562 C 106.257812 16.601562 80.523438 42.296875 80.503906 74.015625 C 80.503906 75.226562 81 76.402344 81.863281 77.265625 C 82.710938 78.109375 83.90625 78.605469 85.117188 78.605469 L 132.398438 78.605469 C 134.933594 78.605469 136.996094 76.550781 136.996094 74.015625 C 136.996094 71.484375 134.933594 69.425781 132.398438 69.425781 L 85.117188 69.425781 L 85.117188 74.015625 L 89.714844 74.015625 C 89.714844 60.691406 95.101562 48.648438 103.851562 39.914062 C 112.601562 31.175781 124.660156 25.777344 138.003906 25.777344 L 138.003906 21.191406 L 133.410156 21.191406 L 133.410156 41.253906 C 133.410156 43.785156 135.46875 45.839844 138.003906 45.839844 C 140.542969 45.839844 142.601562 43.785156 142.601562 41.253906 "/>
<path style=" stroke:none;fill-rule:nonzero;fill:rgb(1.568604%,1.959229%,1.959229%);fill-opacity:1;" d="M 138.003906 74.015625 L 142.601562 74.015625 L 142.601562 21.191406 C 142.601562 19.976562 142.105469 18.804688 141.257812 17.960938 C 140.394531 17.097656 139.21875 16.601562 138.003906 16.601562 C 123.132812 16.601562 109.550781 22.253906 99.347656 31.523438 C 97.472656 33.230469 97.324219 36.132812 99.035156 38.003906 L 134.605469 77.101562 C 135.890625 78.511719 137.894531 78.992188 139.660156 78.292969 C 141.441406 77.613281 142.601562 75.90625 142.601562 74.015625 L 138.003906 74.015625 L 141.40625 70.933594 L 105.835938 31.835938 L 102.433594 34.917969 L 105.523438 38.316406 C 114.125 30.53125 125.488281 25.777344 138.003906 25.777344 L 138.003906 21.191406 L 133.410156 21.191406 L 133.410156 74.015625 L 138.003906 74.015625 L 141.40625 70.933594 L 138.003906 74.015625 "/>
<path style=" stroke:none;fill-rule:nonzero;fill:rgb(100%,100%,100%);fill-opacity:1;" d="M 320.011719 195.199219 L 290.875 195.199219 L 290.875 232.019531 L 320.011719 232.019531 L 320.011719 195.199219 "/>
<path style=" stroke:none;fill-rule:nonzero;fill:rgb(1.568604%,1.959229%,1.959229%);fill-opacity:1;" d="M 320.011719 195.199219 L 320.011719 190.609375 L 290.875 190.609375 C 289.679688 190.609375 288.484375 191.085938 287.640625 191.949219 C 286.773438 192.792969 286.277344 193.988281 286.277344 195.199219 L 286.277344 232.019531 C 286.277344 233.230469 286.773438 234.421875 287.640625 235.269531 C 288.484375 236.113281 289.679688 236.609375 290.875 236.609375 L 320.011719 236.609375 C 321.207031 236.609375 322.398438 236.113281 323.246094 235.269531 C 324.109375 234.421875 324.605469 233.230469 324.605469 232.019531 L 324.605469 195.199219 C 324.605469 193.988281 324.109375 192.792969 323.246094 191.949219 C 322.398438 191.085938 321.207031 190.609375 320.011719 190.609375 L 320.011719 195.199219 L 315.414062 195.199219 L 315.414062 227.429688 L 295.46875 227.429688 L 295.46875 199.785156 L 320.011719 199.785156 L 320.011719 195.199219 L 315.414062 195.199219 L 320.011719 195.199219 "/>
<path style=" stroke:none;fill-rule:nonzero;fill:rgb(100%,100%,100%);fill-opacity:1;" d="M 371.207031 175.410156 L 342.085938 175.410156 L 342.085938 232.019531 L 371.207031 232.019531 L 371.207031 175.410156 "/>
<path style=" stroke:none;fill-rule:nonzero;fill:rgb(1.568604%,1.959229%,1.959229%);fill-opacity:1;" d="M 371.207031 175.410156 L 371.207031 170.824219 L 342.085938 170.824219 C 340.875 170.824219 339.699219 171.316406 338.835938 172.179688 C 337.988281 173.023438 337.492188 174.199219 337.492188 175.410156 L 337.492188 232.019531 C 337.492188 233.230469 337.988281 234.421875 338.835938 235.269531 C 339.699219 236.113281 340.875 236.609375 342.085938 236.609375 L 371.207031 236.609375 C 372.417969 236.609375 373.59375 236.113281 374.441406 235.269531 C 375.304688 234.421875 375.800781 233.230469 375.800781 232.019531 L 375.800781 175.410156 C 375.800781 174.199219 375.304688 173.023438 374.441406 172.179688 C 373.59375 171.316406 372.417969 170.824219 371.207031 170.824219 L 371.207031 175.410156 L 366.609375 175.410156 L 366.609375 227.429688 L 346.683594 227.429688 L 346.683594 180 L 371.207031 180 L 371.207031 175.410156 L 366.609375 175.410156 L 371.207031 175.410156 "/>
<path style=" stroke:none;fill-rule:nonzero;fill:rgb(100%,100%,100%);fill-opacity:1;" d="M 422.824219 123.097656 L 393.707031 123.097656 L 393.707031 232.019531 L 422.824219 232.019531 L 422.824219 123.097656 "/>
<path style=" stroke:none;fill-rule:nonzero;fill:rgb(1.568604%,1.959229%,1.959229%);fill-opacity:1;" d="M 422.824219 123.097656 L 422.824219 118.507812 L 393.707031 118.507812 C 392.511719 118.507812 391.316406 119.003906 390.46875 119.867188 C 389.605469 120.710938 389.109375 121.90625 389.109375 123.097656 L 389.109375 232.019531 C 389.109375 233.230469 389.605469 234.421875 390.46875 235.269531 C 391.316406 236.113281 392.511719 236.609375 393.707031 236.609375 L 422.824219 236.609375 C 424.035156 236.609375 425.230469 236.113281 426.078125 235.269531 C 426.941406 234.421875 427.417969 233.230469 427.417969 232.019531 L 427.417969 123.097656 C 427.417969 121.90625 426.941406 120.710938 426.078125 119.867188 C 425.230469 119.003906 424.035156 118.507812 422.824219 118.507812 L 422.824219 123.097656 L 418.226562 123.097656 L 418.226562 227.429688 L 398.300781 227.429688 L 398.300781 127.6875 L 422.824219 127.6875 L 422.824219 123.097656 L 418.226562 123.097656 L 422.824219 123.097656 "/>
<path style=" stroke:none;fill-rule:nonzero;fill:rgb(100%,100%,100%);fill-opacity:1;" d="M 290.875 172.65625 C 290.875 172.65625 356.902344 143.894531 405.949219 86.5 "/>
<path style=" stroke:none;fill-rule:nonzero;fill:rgb(1.568604%,1.959229%,1.959229%);fill-opacity:1;" d="M 292.710938 176.859375 C 292.878906 176.789062 309.585938 169.519531 332.492188 154.980469 C 355.398438 140.445312 384.515625 118.65625 409.441406 89.472656 C 411.097656 87.542969 410.855469 84.664062 408.925781 83.011719 C 406.996094 81.375 404.09375 81.597656 402.457031 83.523438 C 378.355469 111.738281 349.9375 133.027344 327.566406 147.234375 C 316.371094 154.320312 306.703125 159.644531 299.863281 163.1875 C 296.425781 164.96875 293.707031 166.289062 291.847656 167.152344 C 290.929688 167.609375 290.210938 167.921875 289.734375 168.140625 C 289.496094 168.253906 289.332031 168.324219 289.203125 168.382812 L 289.074219 168.4375 L 289.035156 168.453125 C 286.71875 169.464844 285.652344 172.164062 286.664062 174.492188 C 287.675781 176.824219 290.394531 177.871094 292.710938 176.859375 "/>
<path style=" stroke:none;fill-rule:nonzero;fill:rgb(1.568604%,1.959229%,1.959229%);fill-opacity:1;" d="M 385.34375 89.894531 L 403.6875 88.5 L 403.6875 105.585938 C 403.6875 108.121094 405.746094 110.175781 408.285156 110.175781 C 410.820312 110.175781 412.878906 108.121094 412.878906 105.585938 L 412.878906 83.542969 C 412.878906 82.257812 412.347656 81.046875 411.410156 80.164062 C 410.472656 79.304688 409.203125 78.863281 407.933594 78.953125 L 384.625 80.753906 C 382.105469 80.953125 380.214844 83.15625 380.398438 85.671875 C 380.597656 88.207031 382.804688 90.097656 385.34375 89.894531 "/>
</g>
</defs>
<g id="surface1">
<use xlink:href="#surface5" transform="matrix(1,0,0,1,601,130)" mask="url(#mask0)"/>
<use xlink:href="#surface8" transform="matrix(1,0,0,1,892,137)" mask="url(#mask1)"/>
<use xlink:href="#surface11" transform="matrix(1,0,0,1,1019,137)" mask="url(#mask2)"/>
<use xlink:href="#surface14" transform="matrix(1,0,0,1,565,212)" mask="url(#mask3)"/>
</g>
</svg>
